/* XPM */
static const char *down_frame_1[] = {
/* columns rows colors chars-per-pixel */
"64 64 5 1 ",
"  c #141B1B",
". c #E46D3A",
"X c #E0394C",
"o c #F2EAF1",
"O c None",
/* pixels */
"OOOOOOOOOOOOOOOOOOOOOOOO        OOOOOOOO        OOOOOOOOOOOOOOOO",
"OOOOOOOOOOOOOOOOOOOOOOOO        OOOOOOOO        OOOOOOOOOOOOOOOO",
"OOOOOOOOOOOOOOOOOOOOOOOO        OOOOOOOO        OOOOOOOOOOOOOOOO",
"OOOOOOOOOOOOOOOOOOOOOOOO        OOOOOOOO        OOOOOOOOOOOOOOOO",
"OOOOOOOOOOOOOOOO        XXXX    OOOO    XXXXXXXX    OOOOOOOOOOOO",
"OOOOOOOOOOOOOOOO        XXXX    OOOO    XXXXXXXX    OOOOOOOOOOOO",
"OOOOOOOOOOOOOOOO        XXXX    OOOO    XXXXXXXX    OOOOOOOOOOOO",
"OOOOOOOOOOOOOOOO        XXXX    OOOO    XXXXXXXX    OOOOOOOOOOOO",
"OOOOOOOOOOOO    XXXXXXXX....        XXXX....XXXX    OOOOOOOOOOOO",
"OOOOOOOOOOOO    XXXXXXXX....        XXXX....XXXX    OOOOOOOOOOOO",
"OOOOOOOOOOOO    XXXXXXXX....        XXXX....XXXX    OOOOOOOOOOOO",
"OOOOOOOOOOOO    XXXXXXXX....        XXXX....XXXX    OOOOOOOOOOOO",
"OOOOOOOO    XXXXXXXX........XXXX................XXXX    OOOOOOOO",
"OOOOOOOO    XXXXXXXX........XXXX................XXXX    OOOOOOOO",
"OOOOOOOO    XXXXXXXX........XXXX................XXXX    OOOOOOOO",
"OOOOOOOO    XXXXXXXX........XXXX................XXXX    OOOOOOOO",
"OOOO    XXXXXXXX                                XXXXXXXX    OOOO",
"OOOO    XXXXXXXX                                XXXXXXXX    OOOO",
"OOOO    XXXXXXXX                                XXXXXXXX    OOOO",
"OOOO    XXXXXXXX                                XXXXXXXX    OOOO",
"OOOO    XXXX    oooooooooooooooooooooooooooooooo    XXXXXXXX    ",
"OOOO    XXXX    oooooooooooooooooooooooooooooooo    XXXXXXXX    ",
"OOOO    XXXX    oooooooooooooooooooooooooooooooo    XXXXXXXX    ",
"OOOO    XXXX    oooooooooooooooooooooooooooooooo    XXXXXXXX    ",
"    XXXX    ....oooooooooooooooooooooooooooooooo....    XXXX    ",
"    XXXX    ....oooooooooooooooooooooooooooooooo....    XXXX    ",
"    XXXX    ....oooooooooooooooooooooooooooooooo....    XXXX    ",
"    XXXX    ....oooooooooooooooooooooooooooooooo....    XXXX    ",
"    XXXX    ....oooo        ........        oooo....    XXXX    ",
"    XXXX    ....oooo        ........        oooo....    XXXX    ",
"    XXXX    ....oooo        ........        oooo....    XXXX    ",
"    XXXX    ....oooo        ........        oooo....    XXXX    ",
"    XXXX    ....oooo        ........        oooo....    XXXX    ",
"    XXXX    ....oooo        ........        oooo....    XXXX    ",
"    XXXX    ....oooo        ........        oooo....    XXXX    ",
"    XXXX    ....oooo        ........        oooo....    XXXX    ",
"    XXXX    ....oooooooooooooooooooooooooooooooo....    XXXX    ",
"    XXXX    ....oooooooooooooooooooooooooooooooo....    XXXX    ",
"    XXXX    ....oooooooooooooooooooooooooooooooo....    XXXX    ",
"    XXXX    ....oooooooooooooooooooooooooooooooo....    XXXX    ",
"    XXXX    ....XXXXooooooooooooooooooooooooXXXX....    XXXX    ",
"    XXXX    ....XXXXooooooooooooooooooooooooXXXX....    XXXX    ",
"    XXXX    ....XXXXooooooooooooooooooooooooXXXX....    XXXX    ",
"    XXXX    ....XXXXooooooooooooooooooooooooXXXX....    XXXX    ",
"    XXXXXXXX    XXXX....oooo    oooo    ....XXXX    XXXXXXXX    ",
"    XXXXXXXX    XXXX....oooo    oooo    ....XXXX    XXXXXXXX    ",
"    XXXXXXXX    XXXX....oooo    oooo    ....XXXX    XXXXXXXX    ",
"    XXXXXXXX    XXXX....oooo    oooo    ....XXXX    XXXXXXXX    ",
"OOOO    XXXXXXXX    ........    ....    ....    XXXXXXXX    OOOO",
"OOOO    XXXXXXXX    ........    ....    ....    XXXXXXXX    OOOO",
"OOOO    XXXXXXXX    ........    ....    ....    XXXXXXXX    OOOO",
"OOOO    XXXXXXXX    ........    ....    ....    XXXXXXXX    OOOO",
"OOOOOOOO    XXXXXXXX                        XXXXXXXX    OOOOOOOO",
"OOOOOOOO    XXXXXXXX                        XXXXXXXX    OOOOOOOO",
"OOOOOOOO    XXXXXXXX                        XXXXXXXX    OOOOOOOO",
"OOOOOOOO    XXXXXXXX                        XXXXXXXX    OOOOOOOO",
"OOOOOOOOOOOO        XXXXXXXXXXXXXXXXXXXXXXXX        OOOOOOOOOOOO",
"OOOOOOOOOOOO        XXXXXXXXXXXXXXXXXXXXXXXX        OOOOOOOOOOOO",
"OOOOOOOOOOOO        XXXXXXXXXXXXXXXXXXXXXXXX        OOOOOOOOOOOO",
"OOOOOOOOOOOO        XXXXXXXXXXXXXXXXXXXXXXXX        OOOOOOOOOOOO",
"OOOOOOOOOOOOOOOOOOOO                        OOOOOOOOOOOOOOOOOOOO",
"OOOOOOOOOOOOOOOOOOOO                        OOOOOOOOOOOOOOOOOOOO",
"OOOOOOOOOOOOOOOOOOOO                        OOOOOOOOOOOOOOOOOOOO",
"OOOOOOOOOOOOOOOOOOOO                        OOOOOOOOOOOOOOOOOOOO"
};
