/* XPM */
static const char *down_frame_2_xpm[] = {
/* columns rows colors chars-per-pixel */
"32 32 5 1 ",
"  c #141B1B",
". c #E46D3A",
"X c #E0394C",
"o c #8B9150",
"O c #F2EAF1",
/* pixels */
"oooooooooo    oooo    oooooooooo",
"oooooooooo    oooo    oooooooooo",
"oooooooo  XX  oo  XXXX  oooooooo",
"oooooooo  XX  oo  XXXX  oooooooo",
"oooooo  XXXX    XXXX..XX  oooooo",
"oooooo  XXXX    XXXX..XX  oooooo",
"oooo  XXXX....XX........XX  oooo",
"oooo  XXXX....XX........XX  oooo",
"oo  XXXXXXXXXXXXXXXXXXXXXXXX  oo",
"oo  XXXXXXXXXXXXXXXXXXXXXXXX  oo",
"oo  XXXX                XXXXXX  ",
"oo  XXXX                XXXXXX  ",
"  XXXX  OOOOOOOOOOOOOOOO  XXXX  ",
"  XXXX  OOOOOOOOOOOOOOOO  XXXX  ",
"  XX  ..OOOOOOOOOOOOOOOO..  XX  ",
"  XX  ..OOOOOOOOOOOOOOOO..  XX  ",
"  XX  ..OO    ....    OO..  XX  ",
"  XX  ..OO    ....    OO..  XX  ",
"  XX  ..OO    ....    OO..  XX  ",
"  XX  ..OO    ....    OO..  XX  ",
"  XX  ..XXOOOOOOOOOOOOXX..  XX  ",
"  XX  ..XXOOOOOOOOOOOOXX..  XX  ",
"  XXXX  XX..OO  OO  ..XX  XXXX  ",
"  XXXX  XX..OO  OO  ..XX  XXXX  ",
"oo  XXXX  ....  ..  ..  XXXX  oo",
"oo  XXXX  ....  ..  ..  XXXX  oo",
"oooo  XXXX            XXXX  oooo",
"oooo  XXXX            XXXX  oooo",
"oooooo    XXXXXXXXXXXX    oooooo",
"oooooo    XXXXXXXXXXXX    oooooo",
"oooooooooo            oooooooooo",
"oooooooooo            oooooooooo"
};
