/* XPM */
static const char *down_frame_3[] = {
/* columns rows colors chars-per-pixel */
"64 64 5 1 ",
"  c #141B1B",
". c #E46D3A",
"X c #E0394C",
"o c #F2EAF1",
"O c None",
/* pixels */
"OOOOOOOOOOOO            OOOO            OOOOOOOOOOOOOOOOOOOOOOOO",
"OOOOOOOOOOOO            OOOO            OOOOOOOOOOOOOOOOOOOOOOOO",
"OOOOOOOOOOOO            OOOO            OOOOOOOOOOOOOOOOOOOOOOOO",
"OOOOOOOOOOOO            OOOO            OOOOOOOOOOOOOOOOOOOOOOOO",
"OOOOOOOOOOOO    XXXXXXXX        XXXXXXXX    OOOOOOOOOOOOOOOOOOOO",
"OOOOOOOOOOOO    XXXXXXXX        XXXXXXXX    OOOOOOOOOOOOOOOOOOOO",
"OOOOOOOOOOOO    XXXXXXXX        XXXXXXXX    OOOOOOOOOOOOOOOOOOOO",
"OOOOOOOOOOOO    XXXXXXXX        XXXXXXXX    OOOOOOOOOOOOOOOOOOOO",
"OOOOOOOOOOOO    XXXXXXXX        XXXXXXXX....        OOOOOOOOOOOO",
"OOOOOOOOOOOO    XXXXXXXX        XXXXXXXX....        OOOOOOOOOOOO",
"OOOOOOOOOOOO    XXXXXXXX        XXXXXXXX....        OOOOOOOOOOOO",
"OOOOOOOOOOOO    XXXXXXXX        XXXXXXXX....        OOOOOOOOOOOO",
"OOOOOOOO    XXXXXXXX........XXXX................XXXX    OOOOOOOO",
"OOOOOOOO    XXXXXXXX........XXXX................XXXX    OOOOOOOO",
"OOOOOOOO    XXXXXXXX........XXXX................XXXX    OOOOOOOO",
"OOOOOOOO    XXXXXXXX........XXXX................XXXX    OOOOOOOO",
"OOOO    XXXXXXXX                                XXXXXXXX    OOOO",
"OOOO    XXXXXXXX                                XXXXXXXX    OOOO",
"OOOO    XXXXXXXX                                XXXXXXXX    OOOO",
"OOOO    XXXXXXXX                                XXXXXXXX    OOOO",
"    XXXXXXXX    oooooooooooooooooooooooooooooooo    XXXXXXXX    ",
"    XXXXXXXX    oooooooooooooooooooooooooooooooo    XXXXXXXX    ",
"    XXXXXXXX    oooooooooooooooooooooooooooooooo    XXXXXXXX    ",
"    XXXXXXXX    oooooooooooooooooooooooooooooooo    XXXXXXXX    ",
"    XXXX    ....oooooooooooooooooooooooooooooooo....    XXXX    ",
"    XXXX    ....oooooooooooooooooooooooooooooooo....    XXXX    ",
"    XXXX    ....oooooooooooooooooooooooooooooooo....    XXXX    ",
"    XXXX    ....oooooooooooooooooooooooooooooooo....    XXXX    ",
"    XXXX    ....oooo        ........        oooo....    XXXX    ",
"    XXXX    ....oooo        ........        oooo....    XXXX    ",
"    XXXX    ....oooo        ........        oooo....    XXXX    ",
"    XXXX    ....oooo        ........        oooo....    XXXX    ",
"    XXXX    ....oooo        ........        oooo....    XXXX    ",
"    XXXX    ....oooo        ........        oooo....    XXXX    ",
"    XXXX    ....oooo        ........        oooo....    XXXX    ",
"    XXXX    ....oooo        ........        oooo....    XXXX    ",
"    XXXX    ....XXXXooooooooooooooooooooooooXXXX....    XXXX    ",
"    XXXX    ....XXXXooooooooooooooooooooooooXXXX....    XXXX    ",
"    XXXX    ....XXXXooooooooooooooooooooooooXXXX....    XXXX    ",
"    XXXX    ....XXXXooooooooooooooooooooooooXXXX....    XXXX    ",
"    XXXXXXXX    XXXX....oooo    oooo    ....XXXX    XXXXXXXX    ",
"    XXXXXXXX    XXXX....oooo    oooo    ....XXXX    XXXXXXXX    ",
"    XXXXXXXX    XXXX....oooo    oooo    ....XXXX    XXXXXXXX    ",
"    XXXXXXXX    XXXX....oooo    oooo    ....XXXX    XXXXXXXX    ",
"OOOO    XXXXXXXX    ........    ....    ....    XXXXXXXX    OOOO",
"OOOO    XXXXXXXX    ........    ....    ....    XXXXXXXX    OOOO",
"OOOO    XXXXXXXX    ........    ....    ....    XXXXXXXX    OOOO",
"OOOO    XXXXXXXX    ........    ....    ....    XXXXXXXX    OOOO",
"OOOOOOOO    XXXXXXXX                        XXXXXXXX    OOOOOOOO",
"OOOOOOOO    XXXXXXXX                        XXXXXXXX    OOOOOOOO",
"OOOOOOOO    XXXXXXXX                        XXXXXXXX    OOOOOOOO",
"OOOOOOOO    XXXXXXXX                        XXXXXXXX    OOOOOOOO",
"OOOOOOOOOOOO        XXXXXXXXXXXXXXXXXXXXXXXX        OOOOOOOOOOOO",
"OOOOOOOOOOOO        XXXXXXXXXXXXXXXXXXXXXXXX        OOOOOOOOOOOO",
"OOOOOOOOOOOO        XXXXXXXXXXXXXXXXXXXXXXXX        OOOOOOOOOOOO",
"OOOOOOOOOOOO        XXXXXXXXXXXXXXXXXXXXXXXX        OOOOOOOOOOOO",
"OOOOOOOOOOOOOOOOOOOO                        OOOOOOOOOOOOOOOOOOOO",
"OOOOOOOOOOOOOOOOOOOO                        OOOOOOOOOOOOOOOOOOOO",
"OOOOOOOOOOOOOOOOOOOO                        OOOOOOOOOOOOOOOOOOOO",
"OOOOOOOOOOOOOOOOOOOO                        OOOOOOOOOOOOOOOOOOOO",
"OOOOOOOOOOOOOOOOOOOOOOOOOOOOOOOOOOOOOOOOOOOOOOOOOOOOOOOOOOOOOOOO",
"OOOOOOOOOOOOOOOOOOOOOOOOOOOOOOOOOOOOOOOOOOOOOOOOOOOOOOOOOOOOOOOO",
"OOOOOOOOOOOOOOOOOOOOOOOOOOOOOOOOOOOOOOOOOOOOOOOOOOOOOOOOOOOOOOOO",
"OOOOOOOOOOOOOOOOOOOOOOOOOOOOOOOOOOOOOOOOOOOOOOOOOOOOOOOOOOOOOOOO"
};
