/* XPM */
static const char *left_frame_3[] = {
/* columns rows colors chars-per-pixel */
"32 32 5 1 ",
"  c #141B1B",
". c #E46D3A",
"X c #E0394C",
"o c #F2EAF1",
"O c None",
/* pixels */
"OOOOOO      OO      OOOOOOOOOOOO",
"OOOOOO      OO      OOOOOOOOOOOO",
"OOOOOO  XXXX    XXXX  OOOOOOOOOO",
"OOOOOO  XXXX    XXXX  OOOOOOOOOO",
"OOOOOO  XXXX    XXXX..    OOOOOO",
"OOOOOO  XXXX    XXXX..    OOOOOO",
"OOOO  XXXX....XX........XX  OOOO",
"OOOO  XXXX....XX........XX  OOOO",
"OO  XXXX                XXXXXX  ",
"OO  XXXX                XXXXXX  ",
"  XXXX  oooooooooooooooo  XXXX  ",
"  XXXX  oooooooooooooooo  XXXX  ",
"  XX  ..oooooooooooooooo..  XX  ",
"  XX  ..oooooooooooooooo..  XX  ",
"  XX  ....    oooooooooo..  XX  ",
"  XX  ....    oooooooooo..  XX  ",
"  XX  ....    oooooooooo..  XX  ",
"  XX  ....    oooooooooo..  XX  ",
"  XX  ....oooooooooooo....  XX  ",
"  XX  ....oooooooooooo....  XX  ",
"  XXXX  ..  ooXXoo..      XXXX  ",
"  XXXX  ..  ooXXoo..      XXXX  ",
"OO  XX  ..  ..XX..  XXXXXXXX  OO",
"OO  XX  ..  ..XX..  XXXXXXXX  OO",
"OO  XX              XXXXXX  OOOO",
"OO  XX              XXXXXX  OOOO",
"OOOO  XXXXXXXXXXXXXXXX    OOOOOO",
"OOOO  XXXXXXXXXXXXXXXX    OOOOOO",
"OOOOOO                OOOOOOOOOO",
"OOOOOO                OOOOOOOOOO",
"OOOOOOOOOOOOOOOOOOOOOOOOOOOOOOOO",
"OOOOOOOOOOOOOOOOOOOOOOOOOOOOOOOO"
};
