/* XPM */
static const char *left_frame_1[] = {
/* columns rows colors chars-per-pixel */
"32 32 5 1 ",
"  c #141B1B",
". c #E46D3A",
"X c #E0394C",
"o c #F2EAF1",
"O c None",
/* pixels */
"OOOOOOOOOOOO    OOOO    OOOOOOOO",
"OOOOOOOOOOOO    OOOO    OOOOOOOO",
"OOOOOOOO    XX  OO  XXXX  OOOOOO",
"OOOOOOOO    XX  OO  XXXX  OOOOOO",
"OOOOOO  XXXX..    XX..XX  OOOOOO",
"OOOOOO  XXXX..    XX..XX  OOOOOO",
"OOOO  XXXX....XX........XX  OOOO",
"OOOO  XXXX....XX........XX  OOOO",
"OO  XXXX                XXXX  OO",
"OO  XXXX                XXXX  OO",
"OO  XX  oooooooooooooooo  XXXX  ",
"OO  XX  oooooooooooooooo  XXXX  ",
"  XX  ..oooooooooooooooo..  XX  ",
"  XX  ..oooooooooooooooo..  XX  ",
"  XX  ....    oooooooooo..  XX  ",
"  XX  ....    oooooooooo..  XX  ",
"  XX  ....    oooooooooo..  XX  ",
"  XX  ....    oooooooooo..  XX  ",
"  XX  ..oooooooooooooooo..  XX  ",
"  XX  ..oooooooooooooooo..  XX  ",
"  XX  ..oooooooooooooo....  XX  ",
"  XX  ..oooooooooooooo....  XX  ",
"  XXXX  ..  ooXXoo..      XXXX  ",
"  XXXX  ..  ooXXoo..      XXXX  ",
"OO  XX  ..  ..XX..  XXXXXXXX  OO",
"OO  XX  ..  ..XX..  XXXXXXXX  OO",
"OO  XX              XXXXXX  OOOO",
"OO  XX              XXXXXX  OOOO",
"OOOO  XXXXXXXXXXXXXXXX    OOOOOO",
"OOOO  XXXXXXXXXXXXXXXX    OOOOOO",
"OOOOOO                OOOOOOOOOO",
"OOOOOO                OOOOOOOOOO"
};
