/* XPM */
static const char *left_frame_4[] = {
/* columns rows colors chars-per-pixel */
"32 32 5 1 ",
"  c #141B1B",
". c #E46D3A",
"X c #E0394C",
"o c #F2EAF1",
"O c None",
/* pixels */
"OOOOOOOOOOOOOOOOOOOOOOOOOOOOOOOO",
"OOOOOOOOOOOOOOOOOOOOOOOOOOOOOOOO",
"OOOOOOOO    OOOO      OOOOOOOOOO",
"OOOOOOOO    OOOO      OOOOOOOOOO",
"OOOOOOOO  XX  OO  XXXX  OOOOOOOO",
"OOOOOOOO  XX  OO  XXXX  OOOOOOOO",
"OOOO    XXXX..    XX..XX    OOOO",
"OOOO    XXXX..    XX..XX    OOOO",
"OO  XXXX                XXXX  OO",
"OO  XXXX                XXXX  OO",
"  XXXX  oooooooooooooooo  XXXX  ",
"  XXXX  oooooooooooooooo  XXXX  ",
"  XX  ..oooooooooooooooo..  XX  ",
"  XX  ..oooooooooooooooo..  XX  ",
"  XX  ....    oooooooooo..  XX  ",
"  XX  ....    oooooooooo..  XX  ",
"  XX  ....    oooooooooo..  XX  ",
"  XX  ....    oooooooooo..  XX  ",
"  XX  ....oooooooooooo....  XX  ",
"  XX  ....oooooooooooo....  XX  ",
"  XXXX  ..  ooXXoo..      XXXX  ",
"  XXXX  ..  ooXXoo..      XXXX  ",
"  XXXX  ..  ..XX..  XXXXXXXXXX  ",
"  XXXX  ..  ..XX..  XXXXXXXXXX  ",
"OO  XX              XXXXXX    OO",
"OO  XX              XXXXXX    OO",
"OOOO  XXXXXXXXXXXXXXXXXXXX  OOOO",
"OOOO  XXXXXXXXXXXXXXXXXXXX  OOOO",
"OOOOOO    XXXXXXXXXXXX    OOOOOO",
"OOOOOO    XXXXXXXXXXXX    OOOOOO",
"OOOOOOOOOO            OOOOOOOOOO",
"OOOOOOOOOO            OOOOOOOOOO"
};
