/* XPM */
static const char *left_frame_2[] = {
/* columns rows colors chars-per-pixel */
"32 32 5 1 ",
"  c #141B1B",
". c #E46D3A",
"X c #E0394C",
"o c #F2EAF1",
"O c None",
/* pixels */
"OOOOOOOOOO    OOOO    OOOOOOOOOO",
"OOOOOOOOOO    OOOO    OOOOOOOOOO",
"OOOOOOOO  XX  OO  XXXX  OOOOOOOO",
"OOOOOOOO  XX  OO  XXXX  OOOOOOOO",
"OOOOOO  XXXX    XXXX..XX  OOOOOO",
"OOOOOO  XXXX    XXXX..XX  OOOOOO",
"OOOO  XXXX....XX........XX  OOOO",
"OOOO  XXXX....XX........XX  OOOO",
"OO  XXXXXXXXXXXXXXXXXXXXXXXX  OO",
"OO  XXXXXXXXXXXXXXXXXXXXXXXX  OO",
"OO  XXXX                XXXXXX  ",
"OO  XXXX                XXXXXX  ",
"  XXXX  oooooooooooooooo  XXXX  ",
"  XXXX  oooooooooooooooo  XXXX  ",
"  XX  ..oooooooooooooooo..  XX  ",
"  XX  ..oooooooooooooooo..  XX  ",
"  XX  ....    oooooooooo..  XX  ",
"  XX  ....    oooooooooo..  XX  ",
"  XX  ....    oooooooooo..  XX  ",
"  XX  ....    oooooooooo..  XX  ",
"  XX  ....oooooooooooo....  XX  ",
"  XX  ....oooooooooooo....  XX  ",
"  XXXX  ..  ooXXoo..      XXXX  ",
"  XXXX  ..  ooXXoo..      XXXX  ",
"OO  XX  ..  ..XX..  XXXXXXXX  OO",
"OO  XX  ..  ..XX..  XXXXXXXX  OO",
"OO  XX              XXXXXX  OOOO",
"OO  XX              XXXXXX  OOOO",
"OOOO  XXXXXXXXXXXXXXXX    OOOOOO",
"OOOO  XXXXXXXXXXXXXXXX    OOOOOO",
"OOOOOO                OOOOOOOOOO",
"OOOOOO                OOOOOOOOOO"
};
