/* XPM */
static const char *left_frame_2_xpm[] = {
/* columns rows colors chars-per-pixel */
"32 32 5 1 ",
"  c #141B1B",
". c #E46D3A",
"X c #E0394C",
"o c #8B9150",
"O c #F2EAF1",
/* pixels */
"oooooooooo    oooo    oooooooooo",
"oooooooooo    oooo    oooooooooo",
"oooooooo  XX  oo  XXXX  oooooooo",
"oooooooo  XX  oo  XXXX  oooooooo",
"oooooo  XXXX    XXXX..XX  oooooo",
"oooooo  XXXX    XXXX..XX  oooooo",
"oooo  XXXX....XX........XX  oooo",
"oooo  XXXX....XX........XX  oooo",
"oo  XXXXXXXXXXXXXXXXXXXXXXXX  oo",
"oo  XXXXXXXXXXXXXXXXXXXXXXXX  oo",
"oo  XXXX                XXXXXX  ",
"oo  XXXX                XXXXXX  ",
"  XXXX  OOOOOOOOOOOOOOOO  XXXX  ",
"  XXXX  OOOOOOOOOOOOOOOO  XXXX  ",
"  XX  ..OOOOOOOOOOOOOOOO..  XX  ",
"  XX  ..OOOOOOOOOOOOOOOO..  XX  ",
"  XX  ....    OOOOOOOOOO..  XX  ",
"  XX  ....    OOOOOOOOOO..  XX  ",
"  XX  ....    OOOOOOOOOO..  XX  ",
"  XX  ....    OOOOOOOOOO..  XX  ",
"  XX  ....OOOOOOOOOOOO....  XX  ",
"  XX  ....OOOOOOOOOOOO....  XX  ",
"  XXXX  ..  OOXXOO..      XXXX  ",
"  XXXX  ..  OOXXOO..      XXXX  ",
"oo  XX  ..  ..XX..  XXXXXXXX  oo",
"oo  XX  ..  ..XX..  XXXXXXXX  oo",
"oo  XX              XXXXXX  oooo",
"oo  XX              XXXXXX  oooo",
"oooo  XXXXXXXXXXXXXXXX    oooooo",
"oooo  XXXXXXXXXXXXXXXX    oooooo",
"oooooo                oooooooooo",
"oooooo                oooooooooo"
};
