/* XPM */
static const char *left_frame_4_xpm[] = {
/* columns rows colors chars-per-pixel */
"32 32 5 1 ",
"  c #141B1B",
". c #E46D3A",
"X c #E0394C",
"o c #8B9150",
"O c #F2EAF1",
/* pixels */
"oooooooooooooooooooooooooooooooo",
"oooooooooooooooooooooooooooooooo",
"oooooooo    oooo      oooooooooo",
"oooooooo    oooo      oooooooooo",
"oooooooo  XX  oo  XXXX  oooooooo",
"oooooooo  XX  oo  XXXX  oooooooo",
"oooo    XXXX..    XX..XX    oooo",
"oooo    XXXX..    XX..XX    oooo",
"oo  XXXX                XXXX  oo",
"oo  XXXX                XXXX  oo",
"  XXXX  OOOOOOOOOOOOOOOO  XXXX  ",
"  XXXX  OOOOOOOOOOOOOOOO  XXXX  ",
"  XX  ..OOOOOOOOOOOOOOOO..  XX  ",
"  XX  ..OOOOOOOOOOOOOOOO..  XX  ",
"  XX  ....    OOOOOOOOOO..  XX  ",
"  XX  ....    OOOOOOOOOO..  XX  ",
"  XX  ....    OOOOOOOOOO..  XX  ",
"  XX  ....    OOOOOOOOOO..  XX  ",
"  XX  ....OOOOOOOOOOOO....  XX  ",
"  XX  ....OOOOOOOOOOOO....  XX  ",
"  XXXX  ..  OOXXOO..      XXXX  ",
"  XXXX  ..  OOXXOO..      XXXX  ",
"  XXXX  ..  ..XX..  XXXXXXXXXX  ",
"  XXXX  ..  ..XX..  XXXXXXXXXX  ",
"oo  XX              XXXXXX    oo",
"oo  XX              XXXXXX    oo",
"oooo  XXXXXXXXXXXXXXXXXXXX  oooo",
"oooo  XXXXXXXXXXXXXXXXXXXX  oooo",
"oooooo    XXXXXXXXXXXX    oooooo",
"oooooo    XXXXXXXXXXXX    oooooo",
"oooooooooo            oooooooooo",
"oooooooooo            oooooooooo"
};
