/* XPM */
static const char *left_frame_1_xpm[] = {
/* columns rows colors chars-per-pixel */
"32 32 5 1 ",
"  c #141B1B",
". c #E46D3A",
"X c #E0394C",
"o c #8B9150",
"O c #F2EAF1",
/* pixels */
"oooooooooooo    oooo    oooooooo",
"oooooooooooo    oooo    oooooooo",
"oooooooo    XX  oo  XXXX  oooooo",
"oooooooo    XX  oo  XXXX  oooooo",
"oooooo  XXXX..    XX..XX  oooooo",
"oooooo  XXXX..    XX..XX  oooooo",
"oooo  XXXX....XX........XX  oooo",
"oooo  XXXX....XX........XX  oooo",
"oo  XXXX                XXXX  oo",
"oo  XXXX                XXXX  oo",
"oo  XX  OOOOOOOOOOOOOOOO  XXXX  ",
"oo  XX  OOOOOOOOOOOOOOOO  XXXX  ",
"  XX  ..OOOOOOOOOOOOOOOO..  XX  ",
"  XX  ..OOOOOOOOOOOOOOOO..  XX  ",
"  XX  ....    OOOOOOOOOO..  XX  ",
"  XX  ....    OOOOOOOOOO..  XX  ",
"  XX  ....    OOOOOOOOOO..  XX  ",
"  XX  ....    OOOOOOOOOO..  XX  ",
"  XX  ..OOOOOOOOOOOOOOOO..  XX  ",
"  XX  ..OOOOOOOOOOOOOOOO..  XX  ",
"  XX  ..OOOOOOOOOOOOOO....  XX  ",
"  XX  ..OOOOOOOOOOOOOO....  XX  ",
"  XXXX  ..  OOXXOO..      XXXX  ",
"  XXXX  ..  OOXXOO..      XXXX  ",
"oo  XX  ..  ..XX..  XXXXXXXX  oo",
"oo  XX  ..  ..XX..  XXXXXXXX  oo",
"oo  XX              XXXXXX  oooo",
"oo  XX              XXXXXX  oooo",
"oooo  XXXXXXXXXXXXXXXX    oooooo",
"oooo  XXXXXXXXXXXXXXXX    oooooo",
"oooooo                oooooooooo",
"oooooo                oooooooooo"
};
