/* XPM */
static const char *right_frame_4[] = {
/* columns rows colors chars-per-pixel */
"32 32 5 1 ",
"  c #141B1B",
". c #E46D3A",
"X c #E0394C",
"o c #F2EAF1",
"O c None",
/* pixels */
"OOOOOOOOOOOOOOOOOOOOOOOOOOOOOOOO",
"OOOOOOOOOOOOOOOOOOOOOOOOOOOOOOOO",
"OOOOOOOOOO      OOOO    OOOOOOOO",
"OOOOOOOOOO      OOOO    OOOOOOOO",
"OOOOOOOO  XXXX  OO  XX  OOOOOOOO",
"OOOOOOOO  XXXX  OO  XX  OOOOOOOO",
"OOOO    XX..XX    ..XXXX    OOOO",
"OOOO    XX..XX    ..XXXX    OOOO",
"OO  XXXX                XXXX  OO",
"OO  XXXX                XXXX  OO",
"  XXXX  oooooooooooooooo  XXXX  ",
"  XXXX  oooooooooooooooo  XXXX  ",
"  XX  ..oooooooooooooooo..  XX  ",
"  XX  ..oooooooooooooooo..  XX  ",
"  XX  ..oooooooooo    ....  XX  ",
"  XX  ..oooooooooo    ....  XX  ",
"  XX  ..oooooooooo    ....  XX  ",
"  XX  ..oooooooooo    ....  XX  ",
"  XX  ....oooooooooooo....  XX  ",
"  XX  ....oooooooooooo....  XX  ",
"  XXXX      ..ooXXoo  ..  XXXX  ",
"  XXXX      ..ooXXoo  ..  XXXX  ",
"  XXXXXXXXXX  ..XX..  ..  XXXX  ",
"  XXXXXXXXXX  ..XX..  ..  XXXX  ",
"OO    XXXXXX              XX  OO",
"OO    XXXXXX              XX  OO",
"OOOO  XXXXXXXXXXXXXXXXXXXX  OOOO",
"OOOO  XXXXXXXXXXXXXXXXXXXX  OOOO",
"OOOOOO    XXXXXXXXXXXX    OOOOOO",
"OOOOOO    XXXXXXXXXXXX    OOOOOO",
"OOOOOOOOOO            OOOOOOOOOO",
"OOOOOOOOOO            OOOOOOOOOO"
};
