/* XPM */
static const char *right_frame_1[] = {
/* columns rows colors chars-per-pixel */
"32 32 5 1 ",
"  c #141B1B",
". c #E46D3A",
"X c #E0394C",
"o c #F2EAF1",
"O c None",
/* pixels */
"OOOOOOOO    OOOO    OOOOOOOOOOOO",
"OOOOOOOO    OOOO    OOOOOOOOOOOO",
"OOOOOO  XXXX  OO  XX    OOOOOOOO",
"OOOOOO  XXXX  OO  XX    OOOOOOOO",
"OOOOOO  XX..XX    ..XXXX  OOOOOO",
"OOOOOO  XX..XX    ..XXXX  OOOOOO",
"OOOO  XX........XX....XXXX  OOOO",
"OOOO  XX........XX....XXXX  OOOO",
"OO  XXXX                XXXX  OO",
"OO  XXXX                XXXX  OO",
"  XXXX  oooooooooooooooo  XX  OO",
"  XXXX  oooooooooooooooo  XX  OO",
"  XX  ..oooooooooooooooo..  XX  ",
"  XX  ..oooooooooooooooo..  XX  ",
"  XX  ..oooooooooo    ....  XX  ",
"  XX  ..oooooooooo    ....  XX  ",
"  XX  ..oooooooooo    ....  XX  ",
"  XX  ..oooooooooo    ....  XX  ",
"  XX  ..oooooooooooooooo..  XX  ",
"  XX  ..oooooooooooooooo..  XX  ",
"  XX  ....oooooooooooooo..  XX  ",
"  XX  ....oooooooooooooo..  XX  ",
"  XXXX      ..ooXXoo  ..  XXXX  ",
"  XXXX      ..ooXXoo  ..  XXXX  ",
"OO  XXXXXXXX  ..XX..  ..  XX  OO",
"OO  XXXXXXXX  ..XX..  ..  XX  OO",
"OOOO  XXXXXX              XX  OO",
"OOOO  XXXXXX              XX  OO",
"OOOOOO    XXXXXXXXXXXXXXXX  OOOO",
"OOOOOO    XXXXXXXXXXXXXXXX  OOOO",
"OOOOOOOOOO                OOOOOO",
"OOOOOOOOOO                OOOOOO"
};
