/* XPM */
static const char *frame[] = {
"16 16 5 1",
"  c #141B1B",
". c #E46D3A",
"X c #E0394C",
"o c #F2EAF1",
"O c None",
"OOOO  OO  OOOOOO",
"OOO XX O X  OOOO",
"OOO X.X  .XX OOO",
"OO X....X..XX OO",
"O XX        XX O",
" XX oooooooo X O",
" X .oooooooo. X ",
" X .ooooo  .. X ",
" X .ooooo  .. X ",
" X .oooooooo. X ",
" X ..ooooooo. X ",
" XX   .oXo . XX ",
"O XXXX .X. . X O",
"OO XXX       X O",
"OOO  XXXXXXXX OO",
"OOOOO        OOO",
};
