/* XPM */
static const char *right_frame_2_xpm[] = {
/* columns rows colors chars-per-pixel */
"32 32 5 1 ",
"  c #141B1B",
". c #E46D3A",
"X c #E0394C",
"o c #8B9150",
"O c #F2EAF1",
/* pixels */
"oooooooooo    oooo    oooooooooo",
"oooooooooo    oooo    oooooooooo",
"oooooooo  XXXX  oo  XX  oooooooo",
"oooooooo  XXXX  oo  XX  oooooooo",
"oooooo  XX..XXXX    XXXX  oooooo",
"oooooo  XX..XXXX    XXXX  oooooo",
"oooo  XX........XX....XXXX  oooo",
"oooo  XX........XX....XXXX  oooo",
"oo  XXXXXXXXXXXXXXXXXXXXXXXX  oo",
"oo  XXXXXXXXXXXXXXXXXXXXXXXX  oo",
"  XXXXXX                XXXX  oo",
"  XXXXXX                XXXX  oo",
"  XXXX  OOOOOOOOOOOOOOOO  XXXX  ",
"  XXXX  OOOOOOOOOOOOOOOO  XXXX  ",
"  XX  ..OOOOOOOOOOOOOOOO..  XX  ",
"  XX  ..OOOOOOOOOOOOOOOO..  XX  ",
"  XX  ..OOOOOOOOOO    ....  XX  ",
"  XX  ..OOOOOOOOOO    ....  XX  ",
"  XX  ..OOOOOOOOOO    ....  XX  ",
"  XX  ..OOOOOOOOOO    ....  XX  ",
"  XX  ....OOOOOOOOOOOO....  XX  ",
"  XX  ....OOOOOOOOOOOO....  XX  ",
"  XXXX      ..OOXXOO  ..  XXXX  ",
"  XXXX      ..OOXXOO  ..  XXXX  ",
"oo  XXXXXXXX  ..XX..  ..  XX  oo",
"oo  XXXXXXXX  ..XX..  ..  XX  oo",
"oooo  XXXXXX              XX  oo",
"oooo  XXXXXX              XX  oo",
"oooooo    XXXXXXXXXXXXXXXX  oooo",
"oooooo    XXXXXXXXXXXXXXXX  oooo",
"oooooooooo                oooooo",
"oooooooooo                oooooo"
};
