/* XPM */
static const char *right_frame_4_xpm[] = {
/* columns rows colors chars-per-pixel */
"32 32 5 1 ",
"  c #141B1B",
". c #E46D3A",
"X c #E0394C",
"o c #8B9150",
"O c #F2EAF1",
/* pixels */
"oooooooooooooooooooooooooooooooo",
"oooooooooooooooooooooooooooooooo",
"oooooooooo      oooo    oooooooo",
"oooooooooo      oooo    oooooooo",
"oooooooo  XXXX  oo  XX  oooooooo",
"oooooooo  XXXX  oo  XX  oooooooo",
"oooo    XX..XX    ..XXXX    oooo",
"oooo    XX..XX    ..XXXX    oooo",
"oo  XXXX                XXXX  oo",
"oo  XXXX                XXXX  oo",
"  XXXX  OOOOOOOOOOOOOOOO  XXXX  ",
"  XXXX  OOOOOOOOOOOOOOOO  XXXX  ",
"  XX  ..OOOOOOOOOOOOOOOO..  XX  ",
"  XX  ..OOOOOOOOOOOOOOOO..  XX  ",
"  XX  ..OOOOOOOOOO    ....  XX  ",
"  XX  ..OOOOOOOOOO    ....  XX  ",
"  XX  ..OOOOOOOOOO    ....  XX  ",
"  XX  ..OOOOOOOOOO    ....  XX  ",
"  XX  ....OOOOOOOOOOOO....  XX  ",
"  XX  ....OOOOOOOOOOOO....  XX  ",
"  XXXX      ..OOXXOO  ..  XXXX  ",
"  XXXX      ..OOXXOO  ..  XXXX  ",
"  XXXXXXXXXX  ..XX..  ..  XXXX  ",
"  XXXXXXXXXX  ..XX..  ..  XXXX  ",
"oo    XXXXXX              XX  oo",
"oo    XXXXXX              XX  oo",
"oooo  XXXXXXXXXXXXXXXXXXXX  oooo",
"oooo  XXXXXXXXXXXXXXXXXXXX  oooo",
"oooooo    XXXXXXXXXXXX    oooooo",
"oooooo    XXXXXXXXXXXX    oooooo",
"oooooooooo            oooooooooo",
"oooooooooo            oooooooooo"
};
