/* XPM */
static const char *right_frame_2[] = {
/* columns rows colors chars-per-pixel */
"32 32 5 1 ",
"  c #141B1B",
". c #E46D3A",
"X c #E0394C",
"o c #F2EAF1",
"O c None",
/* pixels */
"OOOOOOOOOO    OOOO    OOOOOOOOOO",
"OOOOOOOOOO    OOOO    OOOOOOOOOO",
"OOOOOOOO  XXXX  OO  XX  OOOOOOOO",
"OOOOOOOO  XXXX  OO  XX  OOOOOOOO",
"OOOOOO  XX..XXXX    XXXX  OOOOOO",
"OOOOOO  XX..XXXX    XXXX  OOOOOO",
"OOOO  XX........XX....XXXX  OOOO",
"OOOO  XX........XX....XXXX  OOOO",
"OO  XXXXXXXXXXXXXXXXXXXXXXXX  OO",
"OO  XXXXXXXXXXXXXXXXXXXXXXXX  OO",
"  XXXXXX                XXXX  OO",
"  XXXXXX                XXXX  OO",
"  XXXX  oooooooooooooooo  XXXX  ",
"  XXXX  oooooooooooooooo  XXXX  ",
"  XX  ..oooooooooooooooo..  XX  ",
"  XX  ..oooooooooooooooo..  XX  ",
"  XX  ..oooooooooo    ....  XX  ",
"  XX  ..oooooooooo    ....  XX  ",
"  XX  ..oooooooooo    ....  XX  ",
"  XX  ..oooooooooo    ....  XX  ",
"  XX  ....oooooooooooo....  XX  ",
"  XX  ....oooooooooooo....  XX  ",
"  XXXX      ..ooXXoo  ..  XXXX  ",
"  XXXX      ..ooXXoo  ..  XXXX  ",
"OO  XXXXXXXX  ..XX..  ..  XX  OO",
"OO  XXXXXXXX  ..XX..  ..  XX  OO",
"OOOO  XXXXXX              XX  OO",
"OOOO  XXXXXX              XX  OO",
"OOOOOO    XXXXXXXXXXXXXXXX  OOOO",
"OOOOOO    XXXXXXXXXXXXXXXX  OOOO",
"OOOOOOOOOO                OOOOOO",
"OOOOOOOOOO                OOOOOO"
};
