/* XPM */
static const char *up_frame_3_xpm[] = {
/* columns rows colors chars-per-pixel */
"32 32 5 1 ",
"  c #141B1B",
". c #E46D3A",
"X c #E0394C",
"o c #8B9150",
"O c #F2EAF1",
/* pixels */
"oooooooooooo      oo      oooooo",
"oooooooooooo      oo      oooooo",
"oooooooooo  XXXX    XXXX  oooooo",
"oooooooooo  XXXX    XXXX  oooooo",
"oooooo    ..XXXX    XXXX  oooooo",
"oooooo    ..XXXX    XXXX  oooooo",
"oooo  XX........XX....XXXX  oooo",
"oooo  XX........XX....XXXX  oooo",
"oo  XXXX                XXXX  oo",
"oo  XXXX                XXXX  oo",
"  XXXX  OOOOOOOOOOOOOOOO  XXXX  ",
"  XXXX  OOOOOOOOOOOOOOOO  XXXX  ",
"  XX  ..OOOOOOOOOOOOOOOO..  XX  ",
"  XX  ..OOOOOOOOOOOOOOOO..  XX  ",
"  XX  ..OOOOOOOOOOOOOOOO..  XX  ",
"  XX  ..OOOOOOOOOOOOOOOO..  XX  ",
"  XX  ..OOOOOOOOOOOOOOOO..  XX  ",
"  XX  ..OOOOOOOOOOOOOOOO..  XX  ",
"  XX  ..XXOOOOOOOOOOOOXX..  XX  ",
"  XX  ..XXOOOOOOOOOOOOXX..  XX  ",
"  XXXX  XX............XX  XXXX  ",
"  XXXX  XX............XX  XXXX  ",
"oo  XXXX  ............  XXXX  oo",
"oo  XXXX  ............  XXXX  oo",
"oooo  XXXX            XXXX  oooo",
"oooo  XXXX            XXXX  oooo",
"oooooo    XXXXXXXXXXXX    oooooo",
"oooooo    XXXXXXXXXXXX    oooooo",
"oooooooooo            oooooooooo",
"oooooooooo            oooooooooo",
"oooooooooooooooooooooooooooooooo",
"oooooooooooooooooooooooooooooooo"
};
