/* XPM */
static const char *frame[] = {
"16 16 5 1",
"  c #141B1B",
". c #E46D3A",
"X c #E0394C",
"o c #F2EAF1",
"O c None",
"OOOOO  OO  OOOOO",
"OOOO X O XX OOOO",
"OOO XX  XX.X OOO",
"OO XX..X....X OO",
"O XXXXXXXXXXXX O",
"O XX        XXX ",
" XX oooooooo XX ",
" X .oooooooo. X ",
" X .o  ..  o. X ",
" X .o  ..  o. X ",
" X .XooooooX. X ",
" XX X.o o .X XX ",
"O XX .. . . XX O",
"OO XX      XX OO",
"OOO  XXXXXX  OOO",
"OOOOO      OOOOO",
};
