/* XPM */
static const char *frame[] = {
"16 16 5 1",
"  c #141B1B",
". c #E46D3A",
"X c #E0394C",
"o c #F2EAF1",
"O c None",
"OOOOOO  OO  OOOO",
"OOOO  X O XX OOO",
"OOO XX.  X.X OOO",
"OO XX..X....X OO",
"O XX        XX O",
"O X oooooooo XX ",
" X .oooooooo. X ",
" X .o  ..  o. X ",
" X .o  ..  o. X ",
" X .oooooooo. X ",
" X .XooooooX. X ",
" XX X.o o .X XX ",
"O XX .. . . XX O",
"OO XX      XX OO",
"OOO  XXXXXX  OOO",
"OOOOO      OOOOO",
};
