/* XPM */
static const char *frame[] = {
"16 16 5 1",
"  c #141B1B",
". c #E46D3A",
"X c #E0394C",
"o c #F2EAF1",
"O c None",
"OOO   O   OOOOOO",
"OOO XX  XX OOOOO",
"OOO XX  XX.  OOO",
"OO XX..X....X OO",
"O XX        XXX ",
" XX oooooooo XX ",
" X .oooooooo. X ",
" X ..  ooooo. X ",
" X ..  ooooo. X ",
" X ..oooooo.. X ",
" XX . oXo.   XX ",
"O X . .X. XXXX O",
"O X       XXX OO",
"OO XXXXXXXX  OOO",
"OOO        OOOOO",
"OOOOOOOOOOOOOOOO",
};
