/* XPM */
static const char *frame[] = {
"16 16 5 1",
"  c #141B1B",
". c #E46D3A",
"X c #E0394C",
"o c #F2EAF1",
"O c None",
"OOOOOOOOOOOOOOOO",
"OOOO  OO   OOOOO",
"OOOO X O XX OOOO",
"OO  XX.  X.X  OO",
"O XX        XX O",
" XX oooooooo XX ",
" X .oooooooo. X ",
" X ..  ooooo. X ",
" X ..  ooooo. X ",
" X ..oooooo.. X ",
" XX . oXo.   XX ",
" XX . .X. XXXXX ",
"O X       XXX  O",
"OO XXXXXXXXXX OO",
"OOO  XXXXXX  OOO",
"OOOOO      OOOOO",
};
