/* XPM */
static const char *frame[] = {
"16 16 5 1",
"  c #141B1B",
". c #E46D3A",
"X c #E0394C",
"o c #F2EAF1",
"O c None",
"OOOOOOOOOOOOOOOO",
"OOOOO   OO  OOOO",
"OOOO XX O X OOOO",
"OO  X.X  .XX  OO",
"O XX        XX O",
" XX oooooooo XX ",
" X .oooooooo. X ",
" X .oooooooo. X ",
" X .ooooooooo X ",
" X .oooooooo. X ",
" X .XooooooX. X ",
" XX X......X XX ",
"O XX ...... XX O",
"OO XX      XX OO",
"OOO  XXXXXX  OOO",
"OOOOO      OOOOO",
};
