/* XPM */
static const char *a_frame_1_xpm[] = {
/* columns rows colors chars-per-pixel */
"32 32 7 1 ",
"  c #141B1B",
". c #2D697B",
"X c #8B9150",
"o c #548789",
"O c #79B8CE",
"+ c #9BA7AA",
"@ c #E3F1F5",
/* pixels */
"XXXXXXXXXXXXXXXXXXXXXXXXXXXXXXXX",
"XXXXXXXXXXXXXXXXXXXXXXXXXXXXXXXX",
"XXXXXX                    XXXXXX",
"XXXXXX                    XXXXXX",
"XX    OOOOOOOOOOOOOOoooooo  XXXX",
"XX    OOOOOOOOOOOOOOoooooo  XXXX",
"  @@@@OOOOOOOOOOOOOOOOoooooo  XX",
"  @@@@OOOOOOOOOOOOOOOOoooooo  XX",
"  @@@@@@OOOOOOOOOOOOOOoooooo..  ",
"  @@@@@@OOOOOOOOOOOOOOoooooo..  ",
"XX  @@@@@@OOOOOOOOOOoooooooo..  ",
"XX  @@@@@@OOOOOOOOOOoooooooo..  ",
"  oooo@@@@OOOOOOOOoooooooooo..  ",
"  oooo@@@@OOOOOOOOoooooooooo..  ",
"  @@  @@@@oooooooooooooooooo..  ",
"  @@  @@@@oooooooooooooooooo..  ",
"      @@@@oooooooooooooooo....  ",
"      @@@@oooooooooooooooo....  ",
"  OOOO@@@@oooooooooooooooo....  ",
"  OOOO@@@@oooooooooooooooo....  ",
"  @@@@@@@@oooooooooooo......  XX",
"  @@@@@@@@oooooooooooo......  XX",
"XX  @@@@..................  XXXX",
"XX  @@@@..................  XXXX",
"XXXX    @@................  XXXX",
"XXXX    @@................  XXXX",
"XXXXXX  @@@@@@  ++++  @@  XXXXXX",
"XXXXXX  @@@@@@  ++++  @@  XXXXXX",
"XXXXXXXX  oooo  @@@@  oo  XXXXXX",
"XXXXXXXX  oooo  @@@@  oo  XXXXXX",
"XXXXXXXX  ......    ..  XXXXXXXX",
"XXXXXXXX  ......    ..  XXXXXXXX"
};
