/* XPM */
static const char *a_frame_2[] = {
/* columns rows colors chars-per-pixel */
"64 64 7 1 ",
"  c #141B1B",
". c #2D697B",
"X c #548789",
"o c #79B8CE",
"O c #9BA7AA",
"+ c #E3F1F5",
"@ c None",
/* pixels */
"@@@@@@@@@@@@@@@@@@@@@@@@@@@@@@@@@@@@@@@@@@@@@@@@@@@@@@@@@@@@@@@@",
"@@@@@@@@@@@@@@@@@@@@@@@@@@@@@@@@@@@@@@@@@@@@@@@@@@@@@@@@@@@@@@@@",
"@@@@@@@@@@@@@@@@@@@@@@@@@@@@@@@@@@@@@@@@@@@@@@@@@@@@@@@@@@@@@@@@",
"@@@@@@@@@@@@@@@@@@@@@@@@@@@@@@@@@@@@@@@@@@@@@@@@@@@@@@@@@@@@@@@@",
"@@@@@@@@@@@@@@@@@@@@@@@@@@@@@@@@@@@@@@@@@@@@@@@@@@@@@@@@@@@@@@@@",
"@@@@@@@@@@@@@@@@@@@@@@@@@@@@@@@@@@@@@@@@@@@@@@@@@@@@@@@@@@@@@@@@",
"@@@@@@@@@@@@@@@@@@@@@@@@@@@@@@@@@@@@@@@@@@@@@@@@@@@@@@@@@@@@@@@@",
"@@@@@@@@@@@@@@@@@@@@@@@@@@@@@@@@@@@@@@@@@@@@@@@@@@@@@@@@@@@@@@@@",
"@@@@@@@@@@@@                                        @@@@@@@@@@@@",
"@@@@@@@@@@@@                                        @@@@@@@@@@@@",
"@@@@@@@@@@@@                                        @@@@@@@@@@@@",
"@@@@@@@@@@@@                                        @@@@@@@@@@@@",
"@@@@        ooooooooooooooooooooooooooooXXXXXXXXXXXX    @@@@@@@@",
"@@@@        ooooooooooooooooooooooooooooXXXXXXXXXXXX    @@@@@@@@",
"@@@@        ooooooooooooooooooooooooooooXXXXXXXXXXXX    @@@@@@@@",
"@@@@        ooooooooooooooooooooooooooooXXXXXXXXXXXX    @@@@@@@@",
"    ++++++++ooooooooooooooooooooooooooooooooXXXXXXXXXXXX    @@@@",
"    ++++++++ooooooooooooooooooooooooooooooooXXXXXXXXXXXX    @@@@",
"    ++++++++ooooooooooooooooooooooooooooooooXXXXXXXXXXXX    @@@@",
"    ++++++++ooooooooooooooooooooooooooooooooXXXXXXXXXXXX    @@@@",
"    ++++++++++++ooooooooooooooooooooooooooooXXXXXXXXXXXX....    ",
"    ++++++++++++ooooooooooooooooooooooooooooXXXXXXXXXXXX....    ",
"    ++++++++++++ooooooooooooooooooooooooooooXXXXXXXXXXXX....    ",
"    ++++++++++++ooooooooooooooooooooooooooooXXXXXXXXXXXX....    ",
"@@@@    ++++++++++++ooooooooooooooooooooXXXXXXXXXXXXXXXX....    ",
"@@@@    ++++++++++++ooooooooooooooooooooXXXXXXXXXXXXXXXX....    ",
"@@@@    ++++++++++++ooooooooooooooooooooXXXXXXXXXXXXXXXX....    ",
"@@@@    ++++++++++++ooooooooooooooooooooXXXXXXXXXXXXXXXX....    ",
"    XXXXXXXX++++++++ooooooooooooooooXXXXXXXXXXXXXXXXXXXX....    ",
"    XXXXXXXX++++++++ooooooooooooooooXXXXXXXXXXXXXXXXXXXX....    ",
"    XXXXXXXX++++++++ooooooooooooooooXXXXXXXXXXXXXXXXXXXX....    ",
"    XXXXXXXX++++++++ooooooooooooooooXXXXXXXXXXXXXXXXXXXX....    ",
"    ++++    ++++++++XXXXXXXXXXXXXXXXXXXXXXXXXXXXXXXXXXXX....    ",
"    ++++    ++++++++XXXXXXXXXXXXXXXXXXXXXXXXXXXXXXXXXXXX....    ",
"    ++++    ++++++++XXXXXXXXXXXXXXXXXXXXXXXXXXXXXXXXXXXX....    ",
"    ++++    ++++++++XXXXXXXXXXXXXXXXXXXXXXXXXXXXXXXXXXXX....    ",
"            ++++++++XXXXXXXXXXXXXXXXXXXXXXXXXXXXXXXX........    ",
"            ++++++++XXXXXXXXXXXXXXXXXXXXXXXXXXXXXXXX........    ",
"            ++++++++XXXXXXXXXXXXXXXXXXXXXXXXXXXXXXXX........    ",
"            ++++++++XXXXXXXXXXXXXXXXXXXXXXXXXXXXXXXX........    ",
"    oooooooo++++++++XXXXXXXXXXXXXXXXXXXXXXXXXXXXXXXX........    ",
"    oooooooo++++++++XXXXXXXXXXXXXXXXXXXXXXXXXXXXXXXX........    ",
"    oooooooo++++++++XXXXXXXXXXXXXXXXXXXXXXXXXXXXXXXX........    ",
"    oooooooo++++++++XXXXXXXXXXXXXXXXXXXXXXXXXXXXXXXX........    ",
"    ++++++++++++++++XXXXXXXXXXXXXXXXXXXXXXXX............    @@@@",
"    ++++++++++++++++XXXXXXXXXXXXXXXXXXXXXXXX............    @@@@",
"    ++++++++++++++++XXXXXXXXXXXXXXXXXXXXXXXX............    @@@@",
"    ++++++++++++++++XXXXXXXXXXXXXXXXXXXXXXXX............    @@@@",
"@@@@    ++++++++....................................    @@@@@@@@",
"@@@@    ++++++++....................................    @@@@@@@@",
"@@@@    ++++++++....................................    @@@@@@@@",
"@@@@    ++++++++....................................    @@@@@@@@",
"@@@@@@@@        ++++OOOO++++++++++++++++++++++++    @@@@@@@@@@@@",
"@@@@@@@@        ++++OOOO++++++++++++++++++++++++    @@@@@@@@@@@@",
"@@@@@@@@        ++++OOOO++++++++++++++++++++++++    @@@@@@@@@@@@",
"@@@@@@@@        ++++OOOO++++++++++++++++++++++++    @@@@@@@@@@@@",
"@@@@@@@@@@@@    ++++++++        XXXXXXXXXXXXXXXXXXXX    @@@@@@@@",
"@@@@@@@@@@@@    ++++++++        XXXXXXXXXXXXXXXXXXXX    @@@@@@@@",
"@@@@@@@@@@@@    ++++++++        XXXXXXXXXXXXXXXXXXXX    @@@@@@@@",
"@@@@@@@@@@@@    ++++++++        XXXXXXXXXXXXXXXXXXXX    @@@@@@@@",
"@@@@@@@@@@@@@@@@        @@@@@@@@    ................    @@@@@@@@",
"@@@@@@@@@@@@@@@@        @@@@@@@@    ................    @@@@@@@@",
"@@@@@@@@@@@@@@@@        @@@@@@@@    ................    @@@@@@@@",
"@@@@@@@@@@@@@@@@        @@@@@@@@    ................    @@@@@@@@"
};
