/* XPM */
static const char *d_frame_3[] = {
/* columns rows colors chars-per-pixel */
"64 64 7 1 ",
"  c #141B1B",
". c #2D697B",
"X c #548789",
"o c #79B8CE",
"O c #9BA7AA",
"+ c #E3F1F5",
"@ c None",
/* pixels */
"@@@@@@@@@@@@@@@@@@@@@@@@@@@@@@@@@@@@@@@@@@@@@@@@@@@@@@@@@@@@@@@@",
"@@@@@@@@@@@@@@@@@@@@@@@@@@@@@@@@@@@@@@@@@@@@@@@@@@@@@@@@@@@@@@@@",
"@@@@@@@@@@@@@@@@@@@@@@@@@@@@@@@@@@@@@@@@@@@@@@@@@@@@@@@@@@@@@@@@",
"@@@@@@@@@@@@@@@@@@@@@@@@@@@@@@@@@@@@@@@@@@@@@@@@@@@@@@@@@@@@@@@@",
"@@@@@@@@@@@@                                        @@@@@@@@@@@@",
"@@@@@@@@@@@@                                        @@@@@@@@@@@@",
"@@@@@@@@@@@@                                        @@@@@@@@@@@@",
"@@@@@@@@@@@@                                        @@@@@@@@@@@@",
"@@@@@@@@    XXXXXXXXXXXXoooooooooooooooooooooooooooo        @@@@",
"@@@@@@@@    XXXXXXXXXXXXoooooooooooooooooooooooooooo        @@@@",
"@@@@@@@@    XXXXXXXXXXXXoooooooooooooooooooooooooooo        @@@@",
"@@@@@@@@    XXXXXXXXXXXXoooooooooooooooooooooooooooo        @@@@",
"@@@@    XXXXXXXXXXXXoooooooooooooooooooooooooooooooo++++++++    ",
"@@@@    XXXXXXXXXXXXoooooooooooooooooooooooooooooooo++++++++    ",
"@@@@    XXXXXXXXXXXXoooooooooooooooooooooooooooooooo++++++++    ",
"@@@@    XXXXXXXXXXXXoooooooooooooooooooooooooooooooo++++++++    ",
"    ....XXXXXXXXXXXXoooooooooooooooooooooooooooo++++++++++++    ",
"    ....XXXXXXXXXXXXoooooooooooooooooooooooooooo++++++++++++    ",
"    ....XXXXXXXXXXXXoooooooooooooooooooooooooooo++++++++++++    ",
"    ....XXXXXXXXXXXXoooooooooooooooooooooooooooo++++++++++++    ",
"    ....XXXXXXXXXXXXXXXXoooooooooooooooooooo++++++++++++        ",
"    ....XXXXXXXXXXXXXXXXoooooooooooooooooooo++++++++++++        ",
"    ....XXXXXXXXXXXXXXXXoooooooooooooooooooo++++++++++++        ",
"    ....XXXXXXXXXXXXXXXXoooooooooooooooooooo++++++++++++        ",
"    ....XXXXXXXXXXXXXXXXXXXXoooooooooooooooo++++++++XXXXXXXX    ",
"    ....XXXXXXXXXXXXXXXXXXXXoooooooooooooooo++++++++XXXXXXXX    ",
"    ....XXXXXXXXXXXXXXXXXXXXoooooooooooooooo++++++++XXXXXXXX    ",
"    ....XXXXXXXXXXXXXXXXXXXXoooooooooooooooo++++++++XXXXXXXX    ",
"    ....XXXXXXXXXXXXXXXXXXXXXXXXXXXXXXXXXXXX++++++++    ++++    ",
"    ....XXXXXXXXXXXXXXXXXXXXXXXXXXXXXXXXXXXX++++++++    ++++    ",
"    ....XXXXXXXXXXXXXXXXXXXXXXXXXXXXXXXXXXXX++++++++    ++++    ",
"    ....XXXXXXXXXXXXXXXXXXXXXXXXXXXXXXXXXXXX++++++++    ++++    ",
"    ........XXXXXXXXXXXXXXXXXXXXXXXXXXXXXXXX++++++++            ",
"    ........XXXXXXXXXXXXXXXXXXXXXXXXXXXXXXXX++++++++            ",
"    ........XXXXXXXXXXXXXXXXXXXXXXXXXXXXXXXX++++++++            ",
"    ........XXXXXXXXXXXXXXXXXXXXXXXXXXXXXXXX++++++++            ",
"    ........XXXXXXXXXXXXXXXXXXXXXXXXXXXXXXXX++++++++oooooooo    ",
"    ........XXXXXXXXXXXXXXXXXXXXXXXXXXXXXXXX++++++++oooooooo    ",
"    ........XXXXXXXXXXXXXXXXXXXXXXXXXXXXXXXX++++++++oooooooo    ",
"    ........XXXXXXXXXXXXXXXXXXXXXXXXXXXXXXXX++++++++oooooooo    ",
"@@@@    ............XXXXXXXXXXXXXXXXXXXXXXXX++++++++++++++++    ",
"@@@@    ............XXXXXXXXXXXXXXXXXXXXXXXX++++++++++++++++    ",
"@@@@    ............XXXXXXXXXXXXXXXXXXXXXXXX++++++++++++++++    ",
"@@@@    ............XXXXXXXXXXXXXXXXXXXXXXXX++++++++++++++++    ",
"@@@@@@@@    ....................................++++++++    @@@@",
"@@@@@@@@    ....................................++++++++    @@@@",
"@@@@@@@@    ....................................++++++++    @@@@",
"@@@@@@@@    ....................................++++++++    @@@@",
"@@@@@@@@    ................................++++        @@@@@@@@",
"@@@@@@@@    ................................++++        @@@@@@@@",
"@@@@@@@@    ................................++++        @@@@@@@@",
"@@@@@@@@    ................................++++        @@@@@@@@",
"@@@@@@@@@@@@    ++++    OOOOOOOO    ++++++++++++    @@@@@@@@@@@@",
"@@@@@@@@@@@@    ++++    OOOOOOOO    ++++++++++++    @@@@@@@@@@@@",
"@@@@@@@@@@@@    ++++    OOOOOOOO    ++++++++++++    @@@@@@@@@@@@",
"@@@@@@@@@@@@    ++++    OOOOOOOO    ++++++++++++    @@@@@@@@@@@@",
"@@@@@@@@@@@@    XXXX    ++++++++    XXXXXXXX    @@@@@@@@@@@@@@@@",
"@@@@@@@@@@@@    XXXX    ++++++++    XXXXXXXX    @@@@@@@@@@@@@@@@",
"@@@@@@@@@@@@    XXXX    ++++++++    XXXXXXXX    @@@@@@@@@@@@@@@@",
"@@@@@@@@@@@@    XXXX    ++++++++    XXXXXXXX    @@@@@@@@@@@@@@@@",
"@@@@@@@@@@@@@@@@    ....        ............    @@@@@@@@@@@@@@@@",
"@@@@@@@@@@@@@@@@    ....        ............    @@@@@@@@@@@@@@@@",
"@@@@@@@@@@@@@@@@    ....        ............    @@@@@@@@@@@@@@@@",
"@@@@@@@@@@@@@@@@    ....        ............    @@@@@@@@@@@@@@@@"
};
