/* XPM */
static const char *d_frame_4_xpm[] = {
/* columns rows colors chars-per-pixel */
"32 32 7 1 ",
"  c #141B1B",
". c #2D697B",
"X c #8B9150",
"o c #548789",
"O c #79B8CE",
"+ c #9BA7AA",
"@ c #E3F1F5",
/* pixels */
"XXXXXXXXXXXXXXXXXXXXXXXXXXXXXXXX",
"XXXXXXXXXXXXXXXXXXXXXXXXXXXXXXXX",
"XXXXXXXXXXXXXXXXXXXXXXXXXXXXXXXX",
"XXXXXXXXXXXXXXXXXXXXXXXXXXXXXXXX",
"XXXXXX                    XXXXXX",
"XXXXXX                    XXXXXX",
"XXXX  ooooooOOOOOOOOOOOOOO    XX",
"XXXX  ooooooOOOOOOOOOOOOOO    XX",
"XX  ooooooOOOOOOOOOOOOOOOO@@@@  ",
"XX  ooooooOOOOOOOOOOOOOOOO@@@@  ",
"  ..ooooooOOOOOOOOOOOOOO@@@@@@  ",
"  ..ooooooOOOOOOOOOOOOOO@@@@@@  ",
"  ..ooooooooOOOOOOOOOO@@@@@@    ",
"  ..ooooooooOOOOOOOOOO@@@@@@    ",
"  ..ooooooooooOOOOOOOO@@@@oooo  ",
"  ..ooooooooooOOOOOOOO@@@@oooo  ",
"  ..oooooooooooooooooo@@@@  @@  ",
"  ..oooooooooooooooooo@@@@  @@  ",
"  ....oooooooooooooooo@@@@      ",
"  ....oooooooooooooooo@@@@      ",
"  ....oooooooooooooooo@@@@OOOO  ",
"  ....oooooooooooooooo@@@@OOOO  ",
"XX  ......oooooooooooo@@@@@@@@  ",
"XX  ......oooooooooooo@@@@@@@@  ",
"XXXX  ..................@@@@  XX",
"XXXX  ..................@@@@  XX",
"XXXX  ++++@@@@@@@@@@@@      XXXX",
"XXXX  ++++@@@@@@@@@@@@      XXXX",
"XXXX  ++++  oooooooooo  XXXXXXXX",
"XXXX  ++++  oooooooooo  XXXXXXXX",
"XXXXXX    XX    ........  XXXXXX",
"XXXXXX    XX    ........  XXXXXX"
};
