/* XPM */
static const char *frame[] = {
"16 16 7 1",
"  c #141B1B",
". c #2D697B",
"X c #548789",
"o c #79B8CE",
"O c #9BA7AA",
"+ c #E3F1F5",
"@ c None",
"@@@@@@@@@@@@@@@@",
"@@@@@@@@@@@@@@@@",
"@@@          @@@",
"@@ XXXooooooo  @",
"@ XXXoooooooo++ ",
" .XXXooooooo+++ ",
" .XXXXooooo+++  ",
" .XXXXXoooo++XX ",
" .XXXXXXXXX++ + ",
" ..XXXXXXXX++   ",
" ..XXXXXXXX++oo ",
"@ ...XXXXXX++++ ",
"@@ .........++ @",
"@@@ ++++++O+  @@",
"@@ XXXXX  ++ @@@",
"@@ .... @@  @@@@",
};
