/* XPM */
static const char *s_frame_1[] = {
/* columns rows colors chars-per-pixel */
"64 64 7 1 ",
"  c #141B1B",
". c #2D697B",
"X c #548789",
"o c #79B8CE",
"O c #9BA7AA",
"+ c #E3F1F5",
"@ c None",
/* pixels */
"@@@@@@@@@@@@@@@@@@@@@@@@@@@@@@@@@@@@@@@@@@@@@@@@@@@@@@@@@@@@@@@@",
"@@@@@@@@@@@@@@@@@@@@@@@@@@@@@@@@@@@@@@@@@@@@@@@@@@@@@@@@@@@@@@@@",
"@@@@@@@@@@@@@@@@@@@@@@@@@@@@@@@@@@@@@@@@@@@@@@@@@@@@@@@@@@@@@@@@",
"@@@@@@@@@@@@@@@@@@@@@@@@@@@@@@@@@@@@@@@@@@@@@@@@@@@@@@@@@@@@@@@@",
"@@@@@@@@@@@@                                        @@@@@@@@@@@@",
"@@@@@@@@@@@@                                        @@@@@@@@@@@@",
"@@@@@@@@@@@@                                        @@@@@@@@@@@@",
"@@@@@@@@@@@@                                        @@@@@@@@@@@@",
"@@@@@@@@    XXXXXXXXXXXXXXXXXXXXXXXXXXXXXXXXXXXXXXXX    @@@@@@@@",
"@@@@@@@@    XXXXXXXXXXXXXXXXXXXXXXXXXXXXXXXXXXXXXXXX    @@@@@@@@",
"@@@@@@@@    XXXXXXXXXXXXXXXXXXXXXXXXXXXXXXXXXXXXXXXX    @@@@@@@@",
"@@@@@@@@    XXXXXXXXXXXXXXXXXXXXXXXXXXXXXXXXXXXXXXXX    @@@@@@@@",
"@@@@    XXXXXXXXXXXXooooooooooooooooooooooooXXXXXXXXXXXX    @@@@",
"@@@@    XXXXXXXXXXXXooooooooooooooooooooooooXXXXXXXXXXXX    @@@@",
"@@@@    XXXXXXXXXXXXooooooooooooooooooooooooXXXXXXXXXXXX    @@@@",
"@@@@    XXXXXXXXXXXXooooooooooooooooooooooooXXXXXXXXXXXX    @@@@",
"    ....XXXXXXXXooooooooooooooooooooooooooooooooXXXXXXXX....    ",
"    ....XXXXXXXXooooooooooooooooooooooooooooooooXXXXXXXX....    ",
"    ....XXXXXXXXooooooooooooooooooooooooooooooooXXXXXXXX....    ",
"    ....XXXXXXXXooooooooooooooooooooooooooooooooXXXXXXXX....    ",
"    ....XXXX++++++++++++++++++++++++++++++++++++++++XXXX....    ",
"    ....XXXX++++++++++++++++++++++++++++++++++++++++XXXX....    ",
"    ....XXXX++++++++++++++++++++++++++++++++++++++++XXXX....    ",
"    ....XXXX++++++++++++++++++++++++++++++++++++++++XXXX....    ",
"    ....++++++++++++++++++++++++++++++++++++++++++++++++....    ",
"    ....++++++++++++++++++++++++++++++++++++++++++++++++....    ",
"    ....++++++++++++++++++++++++++++++++++++++++++++++++....    ",
"    ....++++++++++++++++++++++++++++++++++++++++++++++++....    ",
"    ....++++++++++++XXXXXXXXXXXXXXXXXXXXXXXX++++++++++++....    ",
"    ....++++++++++++XXXXXXXXXXXXXXXXXXXXXXXX++++++++++++....    ",
"    ....++++++++++++XXXXXXXXXXXXXXXXXXXXXXXX++++++++++++....    ",
"    ....++++++++++++XXXXXXXXXXXXXXXXXXXXXXXX++++++++++++....    ",
"    ....++++++++XXXX    ++++        ++++    XXXX++++++++....    ",
"    ....++++++++XXXX    ++++        ++++    XXXX++++++++....    ",
"    ....++++++++XXXX    ++++        ++++    XXXX++++++++....    ",
"    ....++++++++XXXX    ++++        ++++    XXXX++++++++....    ",
"    ....++++++++XXXX                        XXXX++++++++....    ",
"    ....++++++++XXXX                        XXXX++++++++....    ",
"    ....++++++++XXXX                        XXXX++++++++....    ",
"    ....++++++++XXXX                        XXXX++++++++....    ",
"@@@@    ++++++++++++oooooooooooooooooooooooo++++++++++++    @@@@",
"@@@@    ++++++++++++oooooooooooooooooooooooo++++++++++++    @@@@",
"@@@@    ++++++++++++oooooooooooooooooooooooo++++++++++++    @@@@",
"@@@@    ++++++++++++oooooooooooooooooooooooo++++++++++++    @@@@",
"@@@@@@@@    ....++++++++++++++++++++++++++++++++....    @@@@@@@@",
"@@@@@@@@    ....++++++++++++++++++++++++++++++++....    @@@@@@@@",
"@@@@@@@@    ....++++++++++++++++++++++++++++++++....    @@@@@@@@",
"@@@@@@@@    ....++++++++++++++++++++++++++++++++....    @@@@@@@@",
"@@@@    ................++++........++++................    @@@@",
"@@@@    ................++++........++++................    @@@@",
"@@@@    ................++++........++++................    @@@@",
"@@@@    ................++++........++++................    @@@@",
"@@@@    OOOOOOOO++++++++++++++++++++++++++++++++OOOOOOOO    @@@@",
"@@@@    OOOOOOOO++++++++++++++++++++++++++++++++OOOOOOOO    @@@@",
"@@@@    OOOOOOOO++++++++++++++++++++++++++++++++OOOOOOOO    @@@@",
"@@@@    OOOOOOOO++++++++++++++++++++++++++++++++OOOOOOOO    @@@@",
"@@@@    ++++++++XXXXXXXXXXXX        XXXXXXXXXXXX++++++++    @@@@",
"@@@@    ++++++++XXXXXXXXXXXX        XXXXXXXXXXXX++++++++    @@@@",
"@@@@    ++++++++XXXXXXXXXXXX        XXXXXXXXXXXX++++++++    @@@@",
"@@@@    ++++++++XXXXXXXXXXXX        XXXXXXXXXXXX++++++++    @@@@",
"@@@@@@@@        ............        ............        @@@@@@@@",
"@@@@@@@@        ............        ............        @@@@@@@@",
"@@@@@@@@        ............        ............        @@@@@@@@",
"@@@@@@@@        ............        ............        @@@@@@@@"
};
