/* XPM */
static const char *s_frame_2_xpm[] = {
/* columns rows colors chars-per-pixel */
"32 32 7 1 ",
"  c #141B1B",
". c #2D697B",
"X c #8B9150",
"o c #548789",
"O c #79B8CE",
"+ c #9BA7AA",
"@ c #E3F1F5",
/* pixels */
"XXXXXXXXXXXXXXXXXXXXXXXXXXXXXXXX",
"XXXXXXXXXXXXXXXXXXXXXXXXXXXXXXXX",
"XXXXXXXXXXXXXXXXXXXXXXXXXXXXXXXX",
"XXXXXXXXXXXXXXXXXXXXXXXXXXXXXXXX",
"XXXXXX                    XXXXXX",
"XXXXXX                    XXXXXX",
"XXXX  oooooooooooooooooooo  XXXX",
"XXXX  oooooooooooooooooooo  XXXX",
"XX  ooooooOOOOOOOOOOOOoooooo  XX",
"XX  ooooooOOOOOOOOOOOOoooooo  XX",
"  ..ooooOOOOOOOOOOOOOOOOoooo..  ",
"  ..ooooOOOOOOOOOOOOOOOOoooo..  ",
"  ..oo@@@@@@@@@@@@@@@@@@@@oo..  ",
"  ..oo@@@@@@@@@@@@@@@@@@@@oo..  ",
"  ..@@@@@@@@@@@@@@@@@@@@@@@@..  ",
"  ..@@@@@@@@@@@@@@@@@@@@@@@@..  ",
"  ..@@@@@@oooooooooooo@@@@@@..  ",
"  ..@@@@@@oooooooooooo@@@@@@..  ",
"  ..@@@@oo  @@    @@  oo@@@@..  ",
"  ..@@@@oo  @@    @@  oo@@@@..  ",
"  ..@@@@oo            oo@@@@..  ",
"  ..@@@@oo            oo@@@@..  ",
"    @@@@@@OOOOOOOOOOOO@@@@@@  XX",
"    @@@@@@OOOOOOOOOOOO@@@@@@  XX",
"  ++++..@@@@@@@@@@@@@@@@....  XX",
"  ++++..@@@@@@@@@@@@@@@@....  XX",
"XX      ....@@....@@........  XX",
"XX      ....@@....@@........  XX",
"XXXXXX  @@@@@@@@@@@@++@@    XXXX",
"XXXXXX  @@@@@@@@@@@@++@@    XXXX",
"XXXXXXXX  oooo      @@@@  XXXXXX",
"XXXXXXXX  oooo      @@@@  XXXXXX"
};
