/* XPM */
static const char *w_frame_2_xpm[] = {
/* columns rows colors chars-per-pixel */
"32 32 7 1 ",
"  c #141B1B",
". c #2D697B",
"X c #8B9150",
"o c #548789",
"O c #79B8CE",
"+ c #9BA7AA",
"@ c #E3F1F5",
/* pixels */
"XXXXXX                    XXXXXX",
"XXXXXX                    XXXXXX",
"XXXX  ooOOOOOOOOOOOOOOOOoo  XXXX",
"XXXX  ooOOOOOOOOOOOOOOOOoo  XXXX",
"XX  ooOOOOOOOOOOOOOOOOOOOOoo  XX",
"XX  ooOOOOOOOOOOOOOOOOOOOOoo  XX",
"  ..OOOOOOOOOOOOOOOOOOOOOOOO..  ",
"  ..OOOOOOOOOOOOOOOOOOOOOOOO..  ",
"  ..ooOOOOOOOOOOOOOOOOOOOOoo..  ",
"  ..ooOOOOOOOOOOOOOOOOOOOOoo..  ",
"  ....ooOOOOOOOOOOOOOOOOoo....  ",
"  ....ooOOOOOOOOOOOOOOOOoo....  ",
"  ......oooooooooooooooo......  ",
"  ......oooooooooooooooo......  ",
"  ............................  ",
"  ............................  ",
"  ............................  ",
"  ............................  ",
"XX  ........................  XX",
"XX  ........................  XX",
"XXXX    ................      XX",
"XXXX    ................      XX",
"XXXX  ....oooooooooooo..++++  XX",
"XXXX  ....oooooooooooo..++++  XX",
"XXXX  @@++@@@@@@@@@@@@@@    XXXX",
"XXXX  @@++@@@@@@@@@@@@@@    XXXX",
"XXXX  @@@@    ....oooo..  XXXXXX",
"XXXX  @@@@    ....oooo..  XXXXXX",
"XXXXXX    XXXX    ......  XXXXXX",
"XXXXXX    XXXX    ......  XXXXXX",
"XXXXXXXXXXXXXXXX  ....  XXXXXXXX",
"XXXXXXXXXXXXXXXX  ....  XXXXXXXX"
};
