/* XPM */
static const char *w_frame_3[] = {
/* columns rows colors chars-per-pixel */
"64 64 7 1 ",
"  c #141B1B",
". c #2D697B",
"X c #548789",
"o c #79B8CE",
"O c #9BA7AA",
"+ c #E3F1F5",
"@ c None",
/* pixels */
"@@@@@@@@@@@@@@@@@@@@@@@@@@@@@@@@@@@@@@@@@@@@@@@@@@@@@@@@@@@@@@@@",
"@@@@@@@@@@@@@@@@@@@@@@@@@@@@@@@@@@@@@@@@@@@@@@@@@@@@@@@@@@@@@@@@",
"@@@@@@@@@@@@@@@@@@@@@@@@@@@@@@@@@@@@@@@@@@@@@@@@@@@@@@@@@@@@@@@@",
"@@@@@@@@@@@@@@@@@@@@@@@@@@@@@@@@@@@@@@@@@@@@@@@@@@@@@@@@@@@@@@@@",
"@@@@@@@@@@@@                                        @@@@@@@@@@@@",
"@@@@@@@@@@@@                                        @@@@@@@@@@@@",
"@@@@@@@@@@@@                                        @@@@@@@@@@@@",
"@@@@@@@@@@@@                                        @@@@@@@@@@@@",
"@@@@@@@@    XXXXooooooooooooooooooooooooooooooooXXXX    @@@@@@@@",
"@@@@@@@@    XXXXooooooooooooooooooooooooooooooooXXXX    @@@@@@@@",
"@@@@@@@@    XXXXooooooooooooooooooooooooooooooooXXXX    @@@@@@@@",
"@@@@@@@@    XXXXooooooooooooooooooooooooooooooooXXXX    @@@@@@@@",
"@@@@    XXXXooooooooooooooooooooooooooooooooooooooooXXXX    @@@@",
"@@@@    XXXXooooooooooooooooooooooooooooooooooooooooXXXX    @@@@",
"@@@@    XXXXooooooooooooooooooooooooooooooooooooooooXXXX    @@@@",
"@@@@    XXXXooooooooooooooooooooooooooooooooooooooooXXXX    @@@@",
"    ....oooooooooooooooooooooooooooooooooooooooooooooooo....    ",
"    ....oooooooooooooooooooooooooooooooooooooooooooooooo....    ",
"    ....oooooooooooooooooooooooooooooooooooooooooooooooo....    ",
"    ....oooooooooooooooooooooooooooooooooooooooooooooooo....    ",
"    ....XXXXooooooooooooooooooooooooooooooooooooooooXXXX....    ",
"    ....XXXXooooooooooooooooooooooooooooooooooooooooXXXX....    ",
"    ....XXXXooooooooooooooooooooooooooooooooooooooooXXXX....    ",
"    ....XXXXooooooooooooooooooooooooooooooooooooooooXXXX....    ",
"    ........XXXXooooooooooooooooooooooooooooooooXXXX........    ",
"    ........XXXXooooooooooooooooooooooooooooooooXXXX........    ",
"    ........XXXXooooooooooooooooooooooooooooooooXXXX........    ",
"    ........XXXXooooooooooooooooooooooooooooooooXXXX........    ",
"    ............XXXXXXXXXXXXXXXXXXXXXXXXXXXXXXXX............    ",
"    ............XXXXXXXXXXXXXXXXXXXXXXXXXXXXXXXX............    ",
"    ............XXXXXXXXXXXXXXXXXXXXXXXXXXXXXXXX............    ",
"    ............XXXXXXXXXXXXXXXXXXXXXXXXXXXXXXXX............    ",
"    ........................................................    ",
"    ........................................................    ",
"    ........................................................    ",
"    ........................................................    ",
"    ........................................................    ",
"    ........................................................    ",
"    ........................................................    ",
"    ........................................................    ",
"@@@@    ................................................    @@@@",
"@@@@    ................................................    @@@@",
"@@@@    ................................................    @@@@",
"@@@@    ................................................    @@@@",
"@@@@@@@@        ................................        @@@@@@@@",
"@@@@@@@@        ................................        @@@@@@@@",
"@@@@@@@@        ................................        @@@@@@@@",
"@@@@@@@@        ................................        @@@@@@@@",
"@@@@    ............XXXXXXXXXXXXXXXXXXXXXXXX............    @@@@",
"@@@@    ............XXXXXXXXXXXXXXXXXXXXXXXX............    @@@@",
"@@@@    ............XXXXXXXXXXXXXXXXXXXXXXXX............    @@@@",
"@@@@    ............XXXXXXXXXXXXXXXXXXXXXXXX............    @@@@",
"@@@@    OOOOOOOO++++++++++++++++++++++++++++++++OOOOOOOO    @@@@",
"@@@@    OOOOOOOO++++++++++++++++++++++++++++++++OOOOOOOO    @@@@",
"@@@@    OOOOOOOO++++++++++++++++++++++++++++++++OOOOOOOO    @@@@",
"@@@@    OOOOOOOO++++++++++++++++++++++++++++++++OOOOOOOO    @@@@",
"@@@@    OOOOOOOOXXXXXXXXXXXX........XXXXXXXX....OOOOOOOO    @@@@",
"@@@@    OOOOOOOOXXXXXXXXXXXX........XXXXXXXX....OOOOOOOO    @@@@",
"@@@@    OOOOOOOOXXXXXXXXXXXX........XXXXXXXX....OOOOOOOO    @@@@",
"@@@@    OOOOOOOOXXXXXXXXXXXX........XXXXXXXX....OOOOOOOO    @@@@",
"@@@@@@@@        ............        ............        @@@@@@@@",
"@@@@@@@@        ............        ............        @@@@@@@@",
"@@@@@@@@        ............        ............        @@@@@@@@",
"@@@@@@@@        ............        ............        @@@@@@@@"
};
