/* XPM */
static const char *digit_3[] = {
/* columns rows colors chars-per-pixel */
"32 64 4 1 ",
"  c #071821",
". c #86C06C",
"X c #E0F8CF",
"o c None",
/* pixels */
"                            oooo",
"                            oooo",
"                            oooo",
"                            oooo",
"    XXXXXXXXXXXXXXXXXXXX        ",
"    XXXXXXXXXXXXXXXXXXXX        ",
"    XXXXXXXXXXXXXXXXXXXX        ",
"    XXXXXXXXXXXXXXXXXXXX        ",
"    XXXXXXXXXXXXXXXXXXXX        ",
"    XXXXXXXXXXXXXXXXXXXX        ",
"    XXXXXXXXXXXXXXXXXXXX        ",
"    XXXXXXXXXXXXXXXXXXXX        ",
"                XXXXXXXX        ",
"                XXXXXXXX        ",
"                XXXXXXXX        ",
"                XXXXXXXX        ",
"oooo            XXXXXXXX        ",
"oooo            XXXXXXXX        ",
"oooo            XXXXXXXX        ",
"oooo            XXXXXXXX        ",
"oooo            XXXXXXXX        ",
"oooo            XXXXXXXX        ",
"oooo            XXXXXXXX        ",
"oooo            XXXXXXXX        ",
"oooo    XXXXXXXXXXXXXXXX        ",
"oooo    XXXXXXXXXXXXXXXX        ",
"oooo    XXXXXXXXXXXXXXXX        ",
"oooo    XXXXXXXXXXXXXXXX        ",
"oooo    ................        ",
"oooo    ................        ",
"oooo    ................        ",
"oooo    ................        ",
"oooo            ........        ",
"oooo            ........        ",
"oooo            ........        ",
"oooo            ........        ",
"oooooooo        ........        ",
"oooooooo        ........        ",
"oooooooo        ........        ",
"oooooooo        ........        ",
"                ........        ",
"                ........        ",
"                ........        ",
"                ........        ",
"    ....................        ",
"    ....................        ",
"    ....................        ",
"    ....................        ",
"    ....................        ",
"    ....................        ",
"    ....................        ",
"    ....................        ",
"                                ",
"                                ",
"                                ",
"                                ",
"oooo                            ",
"oooo                            ",
"oooo                            ",
"oooo                            ",
"oooooooooooooooooooooooooooooooo",
"oooooooooooooooooooooooooooooooo",
"oooooooooooooooooooooooooooooooo",
"oooooooooooooooooooooooooooooooo"
};
