/* XPM */
static const char *digit_1[] = {
/* columns rows colors chars-per-pixel */
"32 64 4 1 ",
"  c #071821",
". c #86C06C",
"X c #E0F8CF",
"o c None",
/* pixels */
"oooo                    oooooooo",
"oooo                    oooooooo",
"oooo                    oooooooo",
"oooo                    oooooooo",
"oooo    XXXXXXXXXXXX        oooo",
"oooo    XXXXXXXXXXXX        oooo",
"oooo    XXXXXXXXXXXX        oooo",
"oooo    XXXXXXXXXXXX        oooo",
"oooo    XXXXXXXXXXXX        oooo",
"oooo    XXXXXXXXXXXX        oooo",
"oooo    XXXXXXXXXXXX        oooo",
"oooo    XXXXXXXXXXXX        oooo",
"oooo        XXXXXXXX        oooo",
"oooo        XXXXXXXX        oooo",
"oooo        XXXXXXXX        oooo",
"oooo        XXXXXXXX        oooo",
"oooooooo    XXXXXXXX        oooo",
"oooooooo    XXXXXXXX        oooo",
"oooooooo    XXXXXXXX        oooo",
"oooooooo    XXXXXXXX        oooo",
"oooooooo    XXXXXXXX        oooo",
"oooooooo    XXXXXXXX        oooo",
"oooooooo    XXXXXXXX        oooo",
"oooooooo    XXXXXXXX        oooo",
"oooooooo    XXXXXXXX        oooo",
"oooooooo    XXXXXXXX        oooo",
"oooooooo    XXXXXXXX        oooo",
"oooooooo    XXXXXXXX        oooo",
"oooooooo    ........        oooo",
"oooooooo    ........        oooo",
"oooooooo    ........        oooo",
"oooooooo    ........        oooo",
"oooooooo    ........        oooo",
"oooooooo    ........        oooo",
"oooooooo    ........        oooo",
"oooooooo    ........        oooo",
"oooooooo    ........        oooo",
"oooooooo    ........        oooo",
"oooooooo    ........        oooo",
"oooooooo    ........        oooo",
"oooooooo    ........        oooo",
"oooooooo    ........        oooo",
"oooooooo    ........        oooo",
"oooooooo    ........        oooo",
"oooooooo    ........        oooo",
"oooooooo    ........        oooo",
"oooooooo    ........        oooo",
"oooooooo    ........        oooo",
"oooooooo    ........        oooo",
"oooooooo    ........        oooo",
"oooooooo    ........        oooo",
"oooooooo    ........        oooo",
"oooooooo                    oooo",
"oooooooo                    oooo",
"oooooooo                    oooo",
"oooooooo                    oooo",
"oooooooooooo                oooo",
"oooooooooooo                oooo",
"oooooooooooo                oooo",
"oooooooooooo                oooo",
"oooooooooooooooooooooooooooooooo",
"oooooooooooooooooooooooooooooooo",
"oooooooooooooooooooooooooooooooo",
"oooooooooooooooooooooooooooooooo"
};
