/* XPM */
static const char *digit_4[] = {
/* columns rows colors chars-per-pixel */
"32 64 4 1 ",
"  c #071821",
". c #86C06C",
"X c #E0F8CF",
"o c None",
/* pixels */
"                            oooo",
"                            oooo",
"                            oooo",
"                            oooo",
"    XXXXXXXX    XXXXXXXX        ",
"    XXXXXXXX    XXXXXXXX        ",
"    XXXXXXXX    XXXXXXXX        ",
"    XXXXXXXX    XXXXXXXX        ",
"    XXXXXXXX    XXXXXXXX        ",
"    XXXXXXXX    XXXXXXXX        ",
"    XXXXXXXX    XXXXXXXX        ",
"    XXXXXXXX    XXXXXXXX        ",
"    XXXXXXXX    XXXXXXXX        ",
"    XXXXXXXX    XXXXXXXX        ",
"    XXXXXXXX    XXXXXXXX        ",
"    XXXXXXXX    XXXXXXXX        ",
"    XXXXXXXX    XXXXXXXX        ",
"    XXXXXXXX    XXXXXXXX        ",
"    XXXXXXXX    XXXXXXXX        ",
"    XXXXXXXX    XXXXXXXX        ",
"    XXXXXXXX    XXXXXXXX        ",
"    XXXXXXXX    XXXXXXXX        ",
"    XXXXXXXX    XXXXXXXX        ",
"    XXXXXXXX    XXXXXXXX        ",
"    XXXXXXXXXXXXXXXXXXXX        ",
"    XXXXXXXXXXXXXXXXXXXX        ",
"    XXXXXXXXXXXXXXXXXXXX        ",
"    XXXXXXXXXXXXXXXXXXXX        ",
"    ....................        ",
"    ....................        ",
"    ....................        ",
"    ....................        ",
"                ........        ",
"                ........        ",
"                ........        ",
"                ........        ",
"oooo            ........        ",
"oooo            ........        ",
"oooo            ........        ",
"oooo            ........        ",
"oooooooooooo    ........        ",
"oooooooooooo    ........        ",
"oooooooooooo    ........        ",
"oooooooooooo    ........        ",
"oooooooooooo    ........        ",
"oooooooooooo    ........        ",
"oooooooooooo    ........        ",
"oooooooooooo    ........        ",
"oooooooooooo    ........        ",
"oooooooooooo    ........        ",
"oooooooooooo    ........        ",
"oooooooooooo    ........        ",
"oooooooooooo                    ",
"oooooooooooo                    ",
"oooooooooooo                    ",
"oooooooooooo                    ",
"oooooooooooooooo                ",
"oooooooooooooooo                ",
"oooooooooooooooo                ",
"oooooooooooooooo                ",
"oooooooooooooooooooooooooooooooo",
"oooooooooooooooooooooooooooooooo",
"oooooooooooooooooooooooooooooooo",
"oooooooooooooooooooooooooooooooo"
};
