/* XPM */
static const char *digit_7[] = {
/* columns rows colors chars-per-pixel */
"32 64 4 1 ",
"  c #071821",
". c #86C06C",
"X c #E0F8CF",
"o c None",
/* pixels */
"                            oooo",
"                            oooo",
"                            oooo",
"                            oooo",
"    XXXXXXXXXXXXXXXXXXXX        ",
"    XXXXXXXXXXXXXXXXXXXX        ",
"    XXXXXXXXXXXXXXXXXXXX        ",
"    XXXXXXXXXXXXXXXXXXXX        ",
"    XXXXXXXXXXXXXXXXXXXX        ",
"    XXXXXXXXXXXXXXXXXXXX        ",
"    XXXXXXXXXXXXXXXXXXXX        ",
"    XXXXXXXXXXXXXXXXXXXX        ",
"                XXXXXXXX        ",
"                XXXXXXXX        ",
"                XXXXXXXX        ",
"                XXXXXXXX        ",
"oooo            XXXXXXXX        ",
"oooo            XXXXXXXX        ",
"oooo            XXXXXXXX        ",
"oooo            XXXXXXXX        ",
"oooooooooooo    XXXXXXXX        ",
"oooooooooooo    XXXXXXXX        ",
"oooooooooooo    XXXXXXXX        ",
"oooooooooooo    XXXXXXXX        ",
"oooooooooooo    XXXXXXXX        ",
"oooooooooooo    XXXXXXXX        ",
"oooooooooooo    XXXXXXXX        ",
"oooooooooooo    XXXXXXXX        ",
"oooooooooooo    ........        ",
"oooooooooooo    ........        ",
"oooooooooooo    ........        ",
"oooooooooooo    ........        ",
"oooooooooooo    ........        ",
"oooooooooooo    ........        ",
"oooooooooooo    ........        ",
"oooooooooooo    ........        ",
"oooooooooooo    ........        ",
"oooooooooooo    ........        ",
"oooooooooooo    ........        ",
"oooooooooooo    ........        ",
"oooooooooooo    ........        ",
"oooooooooooo    ........        ",
"oooooooooooo    ........        ",
"oooooooooooo    ........        ",
"oooooooooooo    ........        ",
"oooooooooooo    ........        ",
"oooooooooooo    ........        ",
"oooooooooooo    ........        ",
"oooooooooooo    ........        ",
"oooooooooooo    ........        ",
"oooooooooooo    ........        ",
"oooooooooooo    ........        ",
"oooooooooooo                    ",
"oooooooooooo                    ",
"oooooooooooo                    ",
"oooooooooooo                    ",
"oooooooooooooooo                ",
"oooooooooooooooo                ",
"oooooooooooooooo                ",
"oooooooooooooooo                ",
"oooooooooooooooooooooooooooooooo",
"oooooooooooooooooooooooooooooooo",
"oooooooooooooooooooooooooooooooo",
"oooooooooooooooooooooooooooooooo"
};
