/* XPM */
static const char *exit[] = {
/* columns rows colors chars-per-pixel */
"64 64 9 1 ",
"  c #141B1B",
". c #8F3E56",
"X c #965340",
"o c #A3754E",
"O c #D3865F",
"+ c #FFAD5D",
"@ c #F1C471",
"# c white",
"$ c None",
/* pixels */
"$$$$            $$$$$$$$$$$$$$$$$$$$$$$$$$$$$$$$            $$$$",
"$$$$            $$$$$$$$$$$$$$$$$$$$$$$$$$$$$$$$            $$$$",
"$$$$            $$$$$$$$$$$$$$$$$$$$$$$$$$$$$$$$            $$$$",
"$$$$            $$$$$$$$$$$$$$$$$$$$$$$$$$$$$$$$            $$$$",
"$$$$    oooo                                        oooo    $$$$",
"$$$$    oooo                                        oooo    $$$$",
"$$$$    oooo                                        oooo    $$$$",
"$$$$    oooo                                        oooo    $$$$",
"    ....oooo....OOOOOOOOOOOOOOOOOOOOOOOOOOOOOOOO....oooo....    ",
"    ....oooo....OOOOOOOOOOOOOOOOOOOOOOOOOOOOOOOO....oooo....    ",
"    ....oooo....OOOOOOOOOOOOOOOOOOOOOOOOOOOOOOOO....oooo....    ",
"    ....oooo....OOOOOOOOOOOOOOOOOOOOOOOOOOOOOOOO....oooo....    ",
"    ............OOOOOOOOOOOOOOOOOOOOOOOOOOOOOOOO............    ",
"    ............OOOOOOOOOOOOOOOOOOOOOOOOOOOOOOOO............    ",
"    ............OOOOOOOOOOOOOOOOOOOOOOOOOOOOOOOO............    ",
"    ............OOOOOOOOOOOOOOOOOOOOOOOOOOOOOOOO............    ",
"$$$$    ....    XXXXXXXXXXXXXXXX        XXXXXXXX    ....    $$$$",
"$$$$    ....    XXXXXXXXXXXXXXXX        XXXXXXXX    ....    $$$$",
"$$$$    ....    XXXXXXXXXXXXXXXX        XXXXXXXX    ....    $$$$",
"$$$$    ....    XXXXXXXXXXXXXXXX        XXXXXXXX    ....    $$$$",
"$$$$            OOOOOOOOOOOO    @@@@    OOOOOOOO            $$$$",
"$$$$            OOOOOOOOOOOO    @@@@    OOOOOOOO            $$$$",
"$$$$            OOOOOOOOOOOO    @@@@    OOOOOOOO            $$$$",
"$$$$            OOOOOOOOOOOO    @@@@    OOOOOOOO            $$$$",
"$$$$$$$$$$$$    ++++OOOO    @@@@@@@@    OOOO++++    $$$$$$$$$$$$",
"$$$$$$$$$$$$    ++++OOOO    @@@@@@@@    OOOO++++    $$$$$$$$$$$$",
"$$$$$$$$$$$$    ++++OOOO    @@@@@@@@    OOOO++++    $$$$$$$$$$$$",
"$$$$$$$$$$$$    ++++OOOO    @@@@@@@@    OOOO++++    $$$$$$$$$$$$",
"$$$$$$$$$$$$    ++++    @@@@####            ++++    $$$$$$$$$$$$",
"$$$$$$$$$$$$    ++++    @@@@####            ++++    $$$$$$$$$$$$",
"$$$$$$$$$$$$    ++++    @@@@####            ++++    $$$$$$$$$$$$",
"$$$$$$$$$$$$    ++++    @@@@####            ++++    $$$$$$$$$$$$",
"$$$$$$$$$$$$    ++++    ################    ++++    $$$$$$$$$$$$",
"$$$$$$$$$$$$    ++++    ################    ++++    $$$$$$$$$$$$",
"$$$$$$$$$$$$    ++++    ################    ++++    $$$$$$$$$$$$",
"$$$$$$$$$$$$    ++++    ################    ++++    $$$$$$$$$$$$",
"$$$$$$$$$$$$    ++++            ########    ++++    $$$$$$$$$$$$",
"$$$$$$$$$$$$    ++++            ########    ++++    $$$$$$$$$$$$",
"$$$$$$$$$$$$    ++++            ########    ++++    $$$$$$$$$$$$",
"$$$$$$$$$$$$    ++++            ########    ++++    $$$$$$$$$$$$",
"$$$$            ++++++++++++    @@@@    ++++++++            $$$$",
"$$$$            ++++++++++++    @@@@    ++++++++            $$$$",
"$$$$            ++++++++++++    @@@@    ++++++++            $$$$",
"$$$$            ++++++++++++    @@@@    ++++++++            $$$$",
"$$$$    oooo    ++++++++++++    @@@@    ++++++++    oooo    $$$$",
"$$$$    oooo    ++++++++++++    @@@@    ++++++++    oooo    $$$$",
"$$$$    oooo    ++++++++++++    @@@@    ++++++++    oooo    $$$$",
"$$$$    oooo    ++++++++++++    @@@@    ++++++++    oooo    $$$$",
"    ....oooo....OOOOOOOO++++        ++++OOOOOOOO....oooo....    ",
"    ....oooo....OOOOOOOO++++        ++++OOOOOOOO....oooo....    ",
"    ....oooo....OOOOOOOO++++        ++++OOOOOOOO....oooo....    ",
"    ....oooo....OOOOOOOO++++        ++++OOOOOOOO....oooo....    ",
"    ........    OOOOOOOOOOOOOOOOOOOOOOOOOOOOOOOO    ........    ",
"    ........    OOOOOOOOOOOOOOOOOOOOOOOOOOOOOOOO    ........    ",
"    ........    OOOOOOOOOOOOOOOOOOOOOOOOOOOOOOOO    ........    ",
"    ........    OOOOOOOOOOOOOOOOOOOOOOOOOOOOOOOO    ........    ",
"$$$$    ....                                        ....    $$$$",
"$$$$    ....                                        ....    $$$$",
"$$$$    ....                                        ....    $$$$",
"$$$$    ....                                        ....    $$$$",
"$$$$            $$$$$$$$$$$$$$$$$$$$$$$$$$$$$$$$            $$$$",
"$$$$            $$$$$$$$$$$$$$$$$$$$$$$$$$$$$$$$            $$$$",
"$$$$            $$$$$$$$$$$$$$$$$$$$$$$$$$$$$$$$            $$$$",
"$$$$            $$$$$$$$$$$$$$$$$$$$$$$$$$$$$$$$            $$$$"
};
