/* XPM */
static const char *exit_xpm[] = {
/* columns rows colors chars-per-pixel */
"32 32 9 1 ",
"  c #141B1B",
". c #8F3E56",
"X c #965340",
"o c #A3754E",
"O c #8B9150",
"+ c #D3865F",
"@ c #FFAD5D",
"# c #F1C471",
"$ c white",
/* pixels */
"OO      OOOOOOOOOOOOOOOO      OO",
"OO      OOOOOOOOOOOOOOOO      OO",
"OO  oo                    oo  OO",
"OO  oo                    oo  OO",
"  ..oo..++++++++++++++++..oo..  ",
"  ..oo..++++++++++++++++..oo..  ",
"  ......++++++++++++++++......  ",
"  ......++++++++++++++++......  ",
"OO  ..  XXXXXXXX    XXXX  ..  OO",
"OO  ..  XXXXXXXX    XXXX  ..  OO",
"OO      ++++++  ##  ++++      OO",
"OO      ++++++  ##  ++++      OO",
"OOOOOO  @@++  ####  ++@@  OOOOOO",
"OOOOOO  @@++  ####  ++@@  OOOOOO",
"OOOOOO  @@  ##$$      @@  OOOOOO",
"OOOOOO  @@  ##$$      @@  OOOOOO",
"OOOOOO  @@  $$$$$$$$  @@  OOOOOO",
"OOOOOO  @@  $$$$$$$$  @@  OOOOOO",
"OOOOOO  @@      $$$$  @@  OOOOOO",
"OOOOOO  @@      $$$$  @@  OOOOOO",
"OO      @@@@@@  ##  @@@@      OO",
"OO      @@@@@@  ##  @@@@      OO",
"OO  oo  @@@@@@  ##  @@@@  oo  OO",
"OO  oo  @@@@@@  ##  @@@@  oo  OO",
"  ..oo..++++@@    @@++++..oo..  ",
"  ..oo..++++@@    @@++++..oo..  ",
"  ....  ++++++++++++++++  ....  ",
"  ....  ++++++++++++++++  ....  ",
"OO  ..                    ..  OO",
"OO  ..                    ..  OO",
"OO      OOOOOOOOOOOOOOOO      OO",
"OO      OOOOOOOOOOOOOOOO      OO"
};
