/* XPM */
static const char *food_xpm[] = {
/* columns rows colors chars-per-pixel */
"32 32 9 1 ",
"  c #141B1B",
". c #4E484A",
"X c #557D55",
"o c #8B9150",
"O c #8D977F",
"+ c #D2B37D",
"@ c #F1C471",
"# c #FFE18D",
"$ c white",
/* pixels */
"oooooooooooooooooooooooooooooooo",
"oooooooooooooooooooooooooooooooo",
"oooooooooooooooooooooooooooooooo",
"oooooooooooooooooooooooooooooooo",
"ooooooooooooooooooooooXXoooooooo",
"ooooooooooooooooooooooXXoooooooo",
"oooooooooooooo          ooXXoooo",
"oooooooooooooo          ooXXoooo",
"oooooooooo    ##########  XXoooo",
"oooooooooo    ##########  XXoooo",
"oooooooo  ......##########  oooo",
"oooooooo  ......##########  oooo",
"oooooo  ####......@@@@@@@@  oooo",
"oooooo  ####......@@@@@@@@  oooo",
"oooo  ########......OOOO++  oooo",
"oooo  ########......OOOO++  oooo",
"oooo  ########@@..  ++$$  oooooo",
"oooo  ########@@..  ++$$  oooooo",
"oo  ########@@@@    $$  oooooooo",
"oo  ########@@@@    $$  oooooooo",
"oo  ######@@@@++      oooooooooo",
"oo  ######@@@@++      oooooooooo",
"oooo  ##@@@@++$$    oooooooooooo",
"oooo  ##@@@@++$$    oooooooooooo",
"oooooo  ++++$$    oooooooooooooo",
"oooooo  ++++$$    oooooooooooooo",
"oooooooo      oooooooooooooooooo",
"oooooooo      oooooooooooooooooo",
"oooooooooooooooooooooooooooooooo",
"oooooooooooooooooooooooooooooooo",
"oooooooooooooooooooooooooooooooo",
"oooooooooooooooooooooooooooooooo"
};
