/* XPM */
static const char *food[] = {
/* columns rows colors chars-per-pixel */
"16 16 8 1 ",
"  c #141B1B",
". c #4E484A",
"X c #8D977F",
"o c #D2B37D",
"O c #F1C471",
"+ c #FFE18D",
"@ c white",
"# c None",
/* pixels */
"################",
"################",
"################",
"#######     ####",
"#####  +++++ ###",
"#### ...+++++ ##",
"### ++...OOOO ##",
"## ++++...XXo ##",
"## ++++O. o@ ###",
"# ++++OO  @ ####",
"# +++OOo   #####",
"## +OOo@  ######",
"### oo@  #######",
"####   #########",
"################",
"################"
};
