/* XPM */
static const char *wall[] = {
/* columns rows colors chars-per-pixel */
"16 16 6 1 ",
"  c #353540",
". c #557D55",
"X c #918D8D",
"o c #BFB8B4",
"O c #EDE4DA",
"+ c None",
/* pixels */
"++++++++++++++++",
"++++++++++++++++",
"++++        ++++",
"+++  ooooOO  +++",
"+++ ooooooOO +++",
"+++ oooooooo +++",
"++. oooooooo .++",
"++. oooooooo .++",
"++. XooooooX .++",
"++. XXXXXXXX .++",
"++. XXXXXXXX .++",
"++.  XXXXXX  .++",
"++..        ..++",
"+++..........+++",
"++++++++++++++++",
"++++++++++++++++"
};
