/* XPM */
static const char *wall[] = {
/* columns rows colors chars-per-pixel */
"64 64 6 1 ",
"  c #353540",
". c #557D55",
"X c #918D8D",
"o c #BFB8B4",
"O c #EDE4DA",
"+ c None",
/* pixels */
"++++++++++++++++++++++++++++++++++++++++++++++++++++++++++++++++",
"++++++++++++++++++++++++++++++++++++++++++++++++++++++++++++++++",
"++++++++++++++++++++++++++++++++++++++++++++++++++++++++++++++++",
"++++++++++++++++++++++++++++++++++++++++++++++++++++++++++++++++",
"++++++++++++++++++++++++++++++++++++++++++++++++++++++++++++++++",
"++++++++++++++++++++++++++++++++++++++++++++++++++++++++++++++++",
"++++++++++++++++++++++++++++++++++++++++++++++++++++++++++++++++",
"++++++++++++++++++++++++++++++++++++++++++++++++++++++++++++++++",
"++++++++++++++++                                ++++++++++++++++",
"++++++++++++++++                                ++++++++++++++++",
"++++++++++++++++                                ++++++++++++++++",
"++++++++++++++++                                ++++++++++++++++",
"++++++++++++        ooooooooooooooooOOOOOOOO        ++++++++++++",
"++++++++++++        ooooooooooooooooOOOOOOOO        ++++++++++++",
"++++++++++++        ooooooooooooooooOOOOOOOO        ++++++++++++",
"++++++++++++        ooooooooooooooooOOOOOOOO        ++++++++++++",
"++++++++++++    ooooooooooooooooooooooooOOOOOOOO    ++++++++++++",
"++++++++++++    ooooooooooooooooooooooooOOOOOOOO    ++++++++++++",
"++++++++++++    ooooooooooooooooooooooooOOOOOOOO    ++++++++++++",
"++++++++++++    ooooooooooooooooooooooooOOOOOOOO    ++++++++++++",
"++++++++++++    oooooooooooooooooooooooooooooooo    ++++++++++++",
"++++++++++++    oooooooooooooooooooooooooooooooo    ++++++++++++",
"++++++++++++    oooooooooooooooooooooooooooooooo    ++++++++++++",
"++++++++++++    oooooooooooooooooooooooooooooooo    ++++++++++++",
"++++++++....    oooooooooooooooooooooooooooooooo    ....++++++++",
"++++++++....    oooooooooooooooooooooooooooooooo    ....++++++++",
"++++++++....    oooooooooooooooooooooooooooooooo    ....++++++++",
"++++++++....    oooooooooooooooooooooooooooooooo    ....++++++++",
"++++++++....    oooooooooooooooooooooooooooooooo    ....++++++++",
"++++++++....    oooooooooooooooooooooooooooooooo    ....++++++++",
"++++++++....    oooooooooooooooooooooooooooooooo    ....++++++++",
"++++++++....    oooooooooooooooooooooooooooooooo    ....++++++++",
"++++++++....    XXXXooooooooooooooooooooooooXXXX    ....++++++++",
"++++++++....    XXXXooooooooooooooooooooooooXXXX    ....++++++++",
"++++++++....    XXXXooooooooooooooooooooooooXXXX    ....++++++++",
"++++++++....    XXXXooooooooooooooooooooooooXXXX    ....++++++++",
"++++++++....    XXXXXXXXXXXXXXXXXXXXXXXXXXXXXXXX    ....++++++++",
"++++++++....    XXXXXXXXXXXXXXXXXXXXXXXXXXXXXXXX    ....++++++++",
"++++++++....    XXXXXXXXXXXXXXXXXXXXXXXXXXXXXXXX    ....++++++++",
"++++++++....    XXXXXXXXXXXXXXXXXXXXXXXXXXXXXXXX    ....++++++++",
"++++++++....    XXXXXXXXXXXXXXXXXXXXXXXXXXXXXXXX    ....++++++++",
"++++++++....    XXXXXXXXXXXXXXXXXXXXXXXXXXXXXXXX    ....++++++++",
"++++++++....    XXXXXXXXXXXXXXXXXXXXXXXXXXXXXXXX    ....++++++++",
"++++++++....    XXXXXXXXXXXXXXXXXXXXXXXXXXXXXXXX    ....++++++++",
"++++++++....        XXXXXXXXXXXXXXXXXXXXXXXX        ....++++++++",
"++++++++....        XXXXXXXXXXXXXXXXXXXXXXXX        ....++++++++",
"++++++++....        XXXXXXXXXXXXXXXXXXXXXXXX        ....++++++++",
"++++++++....        XXXXXXXXXXXXXXXXXXXXXXXX        ....++++++++",
"++++++++........                                ........++++++++",
"++++++++........                                ........++++++++",
"++++++++........                                ........++++++++",
"++++++++........                                ........++++++++",
"++++++++++++........................................++++++++++++",
"++++++++++++........................................++++++++++++",
"++++++++++++........................................++++++++++++",
"++++++++++++........................................++++++++++++",
"++++++++++++++++++++++++++++++++++++++++++++++++++++++++++++++++",
"++++++++++++++++++++++++++++++++++++++++++++++++++++++++++++++++",
"++++++++++++++++++++++++++++++++++++++++++++++++++++++++++++++++",
"++++++++++++++++++++++++++++++++++++++++++++++++++++++++++++++++",
"++++++++++++++++++++++++++++++++++++++++++++++++++++++++++++++++",
"++++++++++++++++++++++++++++++++++++++++++++++++++++++++++++++++",
"++++++++++++++++++++++++++++++++++++++++++++++++++++++++++++++++",
"++++++++++++++++++++++++++++++++++++++++++++++++++++++++++++++++"
};
