/* XPM */
static const char *wall_xpm[] = {
/* columns rows colors chars-per-pixel */
"32 32 6 1 ",
"  c #353540",
". c #557D55",
"X c #8B9150",
"o c #918D8D",
"O c #BFB8B4",
"+ c #EDE4DA",
/* pixels */
"XXXXXXXXXXXXXXXXXXXXXXXXXXXXXXXX",
"XXXXXXXXXXXXXXXXXXXXXXXXXXXXXXXX",
"XXXXXXXXXXXXXXXXXXXXXXXXXXXXXXXX",
"XXXXXXXXXXXXXXXXXXXXXXXXXXXXXXXX",
"XXXXXXXX                XXXXXXXX",
"XXXXXXXX                XXXXXXXX",
"XXXXXX    OOOOOOOO++++    ..XXXX",
"XXXXXX    OOOOOOOO++++    ..XXXX",
"XXXXXX  OOOOOOOOOOOO++++  ..XXXX",
"XXXXXX  OOOOOOOOOOOO++++  ..XXXX",
"XXXXXX  OOOOOOOOOOOOOOOO  XXXXXX",
"XXXXXX  OOOOOOOOOOOOOOOO  XXXXXX",
"XXXX..  OOOOOOOOOOOOOOOO  ..XXXX",
"XXXX..  OOOOOOOOOOOOOOOO  ..XXXX",
"XXXX..  OOOOOOOOOOOOOOOO  ..XXXX",
"XXXX..  OOOOOOOOOOOOOOOO  ..XXXX",
"XXXX..  ooOOOOOOOOOOOOoo  ..XXXX",
"XXXX..  ooOOOOOOOOOOOOoo  ..XXXX",
"XXXX..  oooooooooooooooo  ..XXXX",
"XXXX..  oooooooooooooooo  ..XXXX",
"XXXX..  oooooooooooooooo  ..XXXX",
"XXXX..  oooooooooooooooo  ..XXXX",
"XXXX..    oooooooooooo    ..XXXX",
"XXXX..    oooooooooooo    ..XXXX",
"XXXX....                ....XXXX",
"XXXX....                ....XXXX",
"XXXXXX....................XXXXXX",
"XXXXXX....................XXXXXX",
"XXXXXXXXXXXXXXXXXXXXXXXXXXXXXXXX",
"XXXXXXXXXXXXXXXXXXXXXXXXXXXXXXXX",
"XXXXXXXXXXXXXXXXXXXXXXXXXXXXXXXX",
"XXXXXXXXXXXXXXXXXXXXXXXXXXXXXXXX"
};
